%TF.GenerationSoftware,KiCad,Pcbnew,(6.0.7)*%
%TF.CreationDate,2023-03-01T01:07:27+09:00*%
%TF.ProjectId,PCB_Main,5043425f-4d61-4696-9e2e-6b696361645f,rev?*%
%TF.SameCoordinates,Original*%
%TF.FileFunction,Legend,Top*%
%TF.FilePolarity,Positive*%
%FSLAX46Y46*%
G04 Gerber Fmt 4.6, Leading zero omitted, Abs format (unit mm)*
G04 Created by KiCad (PCBNEW (6.0.7)) date 2023-03-01 01:07:27*
%MOMM*%
%LPD*%
G01*
G04 APERTURE LIST*
%ADD10C,0.300000*%
%ADD11C,0.150000*%
%ADD12C,0.120000*%
%ADD13C,0.200000*%
G04 APERTURE END LIST*
D10*
X177076902Y-76573452D02*
X177076902Y-76472436D01*
X177127410Y-76320913D01*
X177379948Y-76068375D01*
X177531471Y-76017868D01*
X177632486Y-76017868D01*
X177784009Y-76068375D01*
X177885024Y-76169391D01*
X177986040Y-76371421D01*
X177986040Y-77583604D01*
X178642639Y-76927005D01*
X178238578Y-75209746D02*
X178339593Y-75108730D01*
X178491116Y-75058223D01*
X178592131Y-75058223D01*
X178743654Y-75108730D01*
X178996192Y-75260253D01*
X179248730Y-75512791D01*
X179400253Y-75765330D01*
X179450761Y-75916852D01*
X179450761Y-76017868D01*
X179400253Y-76169391D01*
X179299238Y-76270406D01*
X179147715Y-76320913D01*
X179046700Y-76320913D01*
X178895177Y-76270406D01*
X178642639Y-76118883D01*
X178390101Y-75866345D01*
X178238578Y-75613807D01*
X178188070Y-75462284D01*
X178188070Y-75361269D01*
X178238578Y-75209746D01*
X179097208Y-74553147D02*
X179097208Y-74452131D01*
X179147715Y-74300608D01*
X179400253Y-74048070D01*
X179551776Y-73997563D01*
X179652791Y-73997563D01*
X179804314Y-74048070D01*
X179905330Y-74149086D01*
X180006345Y-74351116D01*
X180006345Y-75563299D01*
X180662944Y-74906700D01*
X179955837Y-73492486D02*
X180612436Y-72835887D01*
X180662944Y-73593502D01*
X180814467Y-73441979D01*
X180965990Y-73391471D01*
X181067005Y-73391471D01*
X181218528Y-73441979D01*
X181471066Y-73694517D01*
X181521574Y-73846040D01*
X181521574Y-73947055D01*
X181471066Y-74098578D01*
X181168020Y-74401624D01*
X181016497Y-74452131D01*
X180915482Y-74452131D01*
D11*
%TO.C,Under1*%
X114581428Y-65705893D02*
X114581428Y-66515417D01*
X114629047Y-66610655D01*
X114676666Y-66658274D01*
X114771904Y-66705893D01*
X114962380Y-66705893D01*
X115057619Y-66658274D01*
X115105238Y-66610655D01*
X115152857Y-66515417D01*
X115152857Y-65705893D01*
X115629047Y-66039227D02*
X115629047Y-66705893D01*
X115629047Y-66134465D02*
X115676666Y-66086846D01*
X115771904Y-66039227D01*
X115914761Y-66039227D01*
X116010000Y-66086846D01*
X116057619Y-66182084D01*
X116057619Y-66705893D01*
X116962380Y-66705893D02*
X116962380Y-65705893D01*
X116962380Y-66658274D02*
X116867142Y-66705893D01*
X116676666Y-66705893D01*
X116581428Y-66658274D01*
X116533809Y-66610655D01*
X116486190Y-66515417D01*
X116486190Y-66229703D01*
X116533809Y-66134465D01*
X116581428Y-66086846D01*
X116676666Y-66039227D01*
X116867142Y-66039227D01*
X116962380Y-66086846D01*
X117819523Y-66658274D02*
X117724285Y-66705893D01*
X117533809Y-66705893D01*
X117438571Y-66658274D01*
X117390952Y-66563036D01*
X117390952Y-66182084D01*
X117438571Y-66086846D01*
X117533809Y-66039227D01*
X117724285Y-66039227D01*
X117819523Y-66086846D01*
X117867142Y-66182084D01*
X117867142Y-66277322D01*
X117390952Y-66372560D01*
X118295714Y-66705893D02*
X118295714Y-66039227D01*
X118295714Y-66229703D02*
X118343333Y-66134465D01*
X118390952Y-66086846D01*
X118486190Y-66039227D01*
X118581428Y-66039227D01*
%TO.C,GPS-UART1*%
X185225000Y-73956666D02*
X185177380Y-74051904D01*
X185177380Y-74194761D01*
X185225000Y-74337619D01*
X185320238Y-74432857D01*
X185415476Y-74480476D01*
X185605952Y-74528095D01*
X185748809Y-74528095D01*
X185939285Y-74480476D01*
X186034523Y-74432857D01*
X186129761Y-74337619D01*
X186177380Y-74194761D01*
X186177380Y-74099523D01*
X186129761Y-73956666D01*
X186082142Y-73909047D01*
X185748809Y-73909047D01*
X185748809Y-74099523D01*
X186177380Y-73480476D02*
X185177380Y-73480476D01*
X185177380Y-73099523D01*
X185225000Y-73004285D01*
X185272619Y-72956666D01*
X185367857Y-72909047D01*
X185510714Y-72909047D01*
X185605952Y-72956666D01*
X185653571Y-73004285D01*
X185701190Y-73099523D01*
X185701190Y-73480476D01*
X186129761Y-72528095D02*
X186177380Y-72385238D01*
X186177380Y-72147142D01*
X186129761Y-72051904D01*
X186082142Y-72004285D01*
X185986904Y-71956666D01*
X185891666Y-71956666D01*
X185796428Y-72004285D01*
X185748809Y-72051904D01*
X185701190Y-72147142D01*
X185653571Y-72337619D01*
X185605952Y-72432857D01*
X185558333Y-72480476D01*
X185463095Y-72528095D01*
X185367857Y-72528095D01*
X185272619Y-72480476D01*
X185225000Y-72432857D01*
X185177380Y-72337619D01*
X185177380Y-72099523D01*
X185225000Y-71956666D01*
X185796428Y-71528095D02*
X185796428Y-70766190D01*
X185177380Y-70290000D02*
X185986904Y-70290000D01*
X186082142Y-70242380D01*
X186129761Y-70194761D01*
X186177380Y-70099523D01*
X186177380Y-69909047D01*
X186129761Y-69813809D01*
X186082142Y-69766190D01*
X185986904Y-69718571D01*
X185177380Y-69718571D01*
X185891666Y-69290000D02*
X185891666Y-68813809D01*
X186177380Y-69385238D02*
X185177380Y-69051904D01*
X186177380Y-68718571D01*
X186177380Y-67813809D02*
X185701190Y-68147142D01*
X186177380Y-68385238D02*
X185177380Y-68385238D01*
X185177380Y-68004285D01*
X185225000Y-67909047D01*
X185272619Y-67861428D01*
X185367857Y-67813809D01*
X185510714Y-67813809D01*
X185605952Y-67861428D01*
X185653571Y-67909047D01*
X185701190Y-68004285D01*
X185701190Y-68385238D01*
X185177380Y-67528095D02*
X185177380Y-66956666D01*
X186177380Y-67242380D02*
X185177380Y-67242380D01*
%TO.C,Power1*%
X116438809Y-97912380D02*
X116438809Y-96912380D01*
X116819761Y-96912380D01*
X116915000Y-96960000D01*
X116962619Y-97007619D01*
X117010238Y-97102857D01*
X117010238Y-97245714D01*
X116962619Y-97340952D01*
X116915000Y-97388571D01*
X116819761Y-97436190D01*
X116438809Y-97436190D01*
X117581666Y-97912380D02*
X117486428Y-97864761D01*
X117438809Y-97817142D01*
X117391190Y-97721904D01*
X117391190Y-97436190D01*
X117438809Y-97340952D01*
X117486428Y-97293333D01*
X117581666Y-97245714D01*
X117724523Y-97245714D01*
X117819761Y-97293333D01*
X117867380Y-97340952D01*
X117915000Y-97436190D01*
X117915000Y-97721904D01*
X117867380Y-97817142D01*
X117819761Y-97864761D01*
X117724523Y-97912380D01*
X117581666Y-97912380D01*
X118248333Y-97245714D02*
X118438809Y-97912380D01*
X118629285Y-97436190D01*
X118819761Y-97912380D01*
X119010238Y-97245714D01*
X119772142Y-97864761D02*
X119676904Y-97912380D01*
X119486428Y-97912380D01*
X119391190Y-97864761D01*
X119343571Y-97769523D01*
X119343571Y-97388571D01*
X119391190Y-97293333D01*
X119486428Y-97245714D01*
X119676904Y-97245714D01*
X119772142Y-97293333D01*
X119819761Y-97388571D01*
X119819761Y-97483809D01*
X119343571Y-97579047D01*
X120248333Y-97912380D02*
X120248333Y-97245714D01*
X120248333Y-97436190D02*
X120295952Y-97340952D01*
X120343571Y-97293333D01*
X120438809Y-97245714D01*
X120534047Y-97245714D01*
%TO.C,SD1*%
X197009285Y-87284761D02*
X197152142Y-87332380D01*
X197390238Y-87332380D01*
X197485476Y-87284761D01*
X197533095Y-87237142D01*
X197580714Y-87141904D01*
X197580714Y-87046666D01*
X197533095Y-86951428D01*
X197485476Y-86903809D01*
X197390238Y-86856190D01*
X197199761Y-86808571D01*
X197104523Y-86760952D01*
X197056904Y-86713333D01*
X197009285Y-86618095D01*
X197009285Y-86522857D01*
X197056904Y-86427619D01*
X197104523Y-86380000D01*
X197199761Y-86332380D01*
X197437857Y-86332380D01*
X197580714Y-86380000D01*
X198009285Y-87332380D02*
X198009285Y-86332380D01*
X198247380Y-86332380D01*
X198390238Y-86380000D01*
X198485476Y-86475238D01*
X198533095Y-86570476D01*
X198580714Y-86760952D01*
X198580714Y-86903809D01*
X198533095Y-87094285D01*
X198485476Y-87189523D01*
X198390238Y-87284761D01*
X198247380Y-87332380D01*
X198009285Y-87332380D01*
%TO.C,ATP3012*%
X133406666Y-59833809D02*
X133406666Y-59357619D01*
X133692380Y-59929047D02*
X132692380Y-59595714D01*
X133692380Y-59262380D01*
X132692380Y-59071904D02*
X132692380Y-58500476D01*
X133692380Y-58786190D02*
X132692380Y-58786190D01*
X133692380Y-58167142D02*
X132692380Y-58167142D01*
X132692380Y-57786190D01*
X132740000Y-57690952D01*
X132787619Y-57643333D01*
X132882857Y-57595714D01*
X133025714Y-57595714D01*
X133120952Y-57643333D01*
X133168571Y-57690952D01*
X133216190Y-57786190D01*
X133216190Y-58167142D01*
X132692380Y-57262380D02*
X132692380Y-56643333D01*
X133073333Y-56976666D01*
X133073333Y-56833809D01*
X133120952Y-56738571D01*
X133168571Y-56690952D01*
X133263809Y-56643333D01*
X133501904Y-56643333D01*
X133597142Y-56690952D01*
X133644761Y-56738571D01*
X133692380Y-56833809D01*
X133692380Y-57119523D01*
X133644761Y-57214761D01*
X133597142Y-57262380D01*
X132692380Y-56024285D02*
X132692380Y-55929047D01*
X132740000Y-55833809D01*
X132787619Y-55786190D01*
X132882857Y-55738571D01*
X133073333Y-55690952D01*
X133311428Y-55690952D01*
X133501904Y-55738571D01*
X133597142Y-55786190D01*
X133644761Y-55833809D01*
X133692380Y-55929047D01*
X133692380Y-56024285D01*
X133644761Y-56119523D01*
X133597142Y-56167142D01*
X133501904Y-56214761D01*
X133311428Y-56262380D01*
X133073333Y-56262380D01*
X132882857Y-56214761D01*
X132787619Y-56167142D01*
X132740000Y-56119523D01*
X132692380Y-56024285D01*
X133692380Y-54738571D02*
X133692380Y-55310000D01*
X133692380Y-55024285D02*
X132692380Y-55024285D01*
X132835238Y-55119523D01*
X132930476Y-55214761D01*
X132978095Y-55310000D01*
X132787619Y-54357619D02*
X132740000Y-54310000D01*
X132692380Y-54214761D01*
X132692380Y-53976666D01*
X132740000Y-53881428D01*
X132787619Y-53833809D01*
X132882857Y-53786190D01*
X132978095Y-53786190D01*
X133120952Y-53833809D01*
X133692380Y-54405238D01*
X133692380Y-53786190D01*
%TO.C,M78AR05-2*%
X120772380Y-78861904D02*
X119772380Y-78861904D01*
X120486666Y-78528571D01*
X119772380Y-78195238D01*
X120772380Y-78195238D01*
X119772380Y-77814285D02*
X119772380Y-77147619D01*
X120772380Y-77576190D01*
X120200952Y-76623809D02*
X120153333Y-76719047D01*
X120105714Y-76766666D01*
X120010476Y-76814285D01*
X119962857Y-76814285D01*
X119867619Y-76766666D01*
X119820000Y-76719047D01*
X119772380Y-76623809D01*
X119772380Y-76433333D01*
X119820000Y-76338095D01*
X119867619Y-76290476D01*
X119962857Y-76242857D01*
X120010476Y-76242857D01*
X120105714Y-76290476D01*
X120153333Y-76338095D01*
X120200952Y-76433333D01*
X120200952Y-76623809D01*
X120248571Y-76719047D01*
X120296190Y-76766666D01*
X120391428Y-76814285D01*
X120581904Y-76814285D01*
X120677142Y-76766666D01*
X120724761Y-76719047D01*
X120772380Y-76623809D01*
X120772380Y-76433333D01*
X120724761Y-76338095D01*
X120677142Y-76290476D01*
X120581904Y-76242857D01*
X120391428Y-76242857D01*
X120296190Y-76290476D01*
X120248571Y-76338095D01*
X120200952Y-76433333D01*
X120486666Y-75861904D02*
X120486666Y-75385714D01*
X120772380Y-75957142D02*
X119772380Y-75623809D01*
X120772380Y-75290476D01*
X120772380Y-74385714D02*
X120296190Y-74719047D01*
X120772380Y-74957142D02*
X119772380Y-74957142D01*
X119772380Y-74576190D01*
X119820000Y-74480952D01*
X119867619Y-74433333D01*
X119962857Y-74385714D01*
X120105714Y-74385714D01*
X120200952Y-74433333D01*
X120248571Y-74480952D01*
X120296190Y-74576190D01*
X120296190Y-74957142D01*
X119772380Y-73766666D02*
X119772380Y-73671428D01*
X119820000Y-73576190D01*
X119867619Y-73528571D01*
X119962857Y-73480952D01*
X120153333Y-73433333D01*
X120391428Y-73433333D01*
X120581904Y-73480952D01*
X120677142Y-73528571D01*
X120724761Y-73576190D01*
X120772380Y-73671428D01*
X120772380Y-73766666D01*
X120724761Y-73861904D01*
X120677142Y-73909523D01*
X120581904Y-73957142D01*
X120391428Y-74004761D01*
X120153333Y-74004761D01*
X119962857Y-73957142D01*
X119867619Y-73909523D01*
X119820000Y-73861904D01*
X119772380Y-73766666D01*
X119772380Y-72528571D02*
X119772380Y-73004761D01*
X120248571Y-73052380D01*
X120200952Y-73004761D01*
X120153333Y-72909523D01*
X120153333Y-72671428D01*
X120200952Y-72576190D01*
X120248571Y-72528571D01*
X120343809Y-72480952D01*
X120581904Y-72480952D01*
X120677142Y-72528571D01*
X120724761Y-72576190D01*
X120772380Y-72671428D01*
X120772380Y-72909523D01*
X120724761Y-73004761D01*
X120677142Y-73052380D01*
X120391428Y-72052380D02*
X120391428Y-71290476D01*
X119867619Y-70861904D02*
X119820000Y-70814285D01*
X119772380Y-70719047D01*
X119772380Y-70480952D01*
X119820000Y-70385714D01*
X119867619Y-70338095D01*
X119962857Y-70290476D01*
X120058095Y-70290476D01*
X120200952Y-70338095D01*
X120772380Y-70909523D01*
X120772380Y-70290476D01*
%TO.C,1PPS1*%
X180181010Y-54732380D02*
X179609582Y-54732380D01*
X179895296Y-54732380D02*
X179895296Y-53732380D01*
X179800058Y-53875238D01*
X179704820Y-53970476D01*
X179609582Y-54018095D01*
X180609582Y-54732380D02*
X180609582Y-53732380D01*
X180990534Y-53732380D01*
X181085772Y-53780000D01*
X181133391Y-53827619D01*
X181181010Y-53922857D01*
X181181010Y-54065714D01*
X181133391Y-54160952D01*
X181085772Y-54208571D01*
X180990534Y-54256190D01*
X180609582Y-54256190D01*
X181609582Y-54732380D02*
X181609582Y-53732380D01*
X181990534Y-53732380D01*
X182085772Y-53780000D01*
X182133391Y-53827619D01*
X182181010Y-53922857D01*
X182181010Y-54065714D01*
X182133391Y-54160952D01*
X182085772Y-54208571D01*
X181990534Y-54256190D01*
X181609582Y-54256190D01*
X182561963Y-54684761D02*
X182704820Y-54732380D01*
X182942915Y-54732380D01*
X183038153Y-54684761D01*
X183085772Y-54637142D01*
X183133391Y-54541904D01*
X183133391Y-54446666D01*
X183085772Y-54351428D01*
X183038153Y-54303809D01*
X182942915Y-54256190D01*
X182752439Y-54208571D01*
X182657201Y-54160952D01*
X182609582Y-54113333D01*
X182561963Y-54018095D01*
X182561963Y-53922857D01*
X182609582Y-53827619D01*
X182657201Y-53780000D01*
X182752439Y-53732380D01*
X182990534Y-53732380D01*
X183133391Y-53780000D01*
%TO.C,ICS-UART1*%
X113787380Y-62708571D02*
X112787380Y-62708571D01*
X113692142Y-61660952D02*
X113739761Y-61708571D01*
X113787380Y-61851428D01*
X113787380Y-61946666D01*
X113739761Y-62089523D01*
X113644523Y-62184761D01*
X113549285Y-62232380D01*
X113358809Y-62280000D01*
X113215952Y-62280000D01*
X113025476Y-62232380D01*
X112930238Y-62184761D01*
X112835000Y-62089523D01*
X112787380Y-61946666D01*
X112787380Y-61851428D01*
X112835000Y-61708571D01*
X112882619Y-61660952D01*
X113739761Y-61280000D02*
X113787380Y-61137142D01*
X113787380Y-60899047D01*
X113739761Y-60803809D01*
X113692142Y-60756190D01*
X113596904Y-60708571D01*
X113501666Y-60708571D01*
X113406428Y-60756190D01*
X113358809Y-60803809D01*
X113311190Y-60899047D01*
X113263571Y-61089523D01*
X113215952Y-61184761D01*
X113168333Y-61232380D01*
X113073095Y-61280000D01*
X112977857Y-61280000D01*
X112882619Y-61232380D01*
X112835000Y-61184761D01*
X112787380Y-61089523D01*
X112787380Y-60851428D01*
X112835000Y-60708571D01*
X113406428Y-60280000D02*
X113406428Y-59518095D01*
X112787380Y-59041904D02*
X113596904Y-59041904D01*
X113692142Y-58994285D01*
X113739761Y-58946666D01*
X113787380Y-58851428D01*
X113787380Y-58660952D01*
X113739761Y-58565714D01*
X113692142Y-58518095D01*
X113596904Y-58470476D01*
X112787380Y-58470476D01*
X113501666Y-58041904D02*
X113501666Y-57565714D01*
X113787380Y-58137142D02*
X112787380Y-57803809D01*
X113787380Y-57470476D01*
X113787380Y-56565714D02*
X113311190Y-56899047D01*
X113787380Y-57137142D02*
X112787380Y-57137142D01*
X112787380Y-56756190D01*
X112835000Y-56660952D01*
X112882619Y-56613333D01*
X112977857Y-56565714D01*
X113120714Y-56565714D01*
X113215952Y-56613333D01*
X113263571Y-56660952D01*
X113311190Y-56756190D01*
X113311190Y-57137142D01*
X112787380Y-56280000D02*
X112787380Y-55708571D01*
X113787380Y-55994285D02*
X112787380Y-55994285D01*
%TO.C,R2*%
X124312619Y-57510476D02*
X124265000Y-57462857D01*
X124217380Y-57367619D01*
X124217380Y-57129523D01*
X124265000Y-57034285D01*
X124312619Y-56986666D01*
X124407857Y-56939047D01*
X124503095Y-56939047D01*
X124645952Y-56986666D01*
X125217380Y-57558095D01*
X125217380Y-56939047D01*
X125217380Y-56510476D02*
X124217380Y-56510476D01*
X124836428Y-56415238D02*
X125217380Y-56129523D01*
X124550714Y-56129523D02*
X124931666Y-56510476D01*
%TO.C,Under-UART1*%
X112787380Y-78920952D02*
X113596904Y-78920952D01*
X113692142Y-78873333D01*
X113739761Y-78825714D01*
X113787380Y-78730476D01*
X113787380Y-78540000D01*
X113739761Y-78444761D01*
X113692142Y-78397142D01*
X113596904Y-78349523D01*
X112787380Y-78349523D01*
X113120714Y-77873333D02*
X113787380Y-77873333D01*
X113215952Y-77873333D02*
X113168333Y-77825714D01*
X113120714Y-77730476D01*
X113120714Y-77587619D01*
X113168333Y-77492380D01*
X113263571Y-77444761D01*
X113787380Y-77444761D01*
X113787380Y-76540000D02*
X112787380Y-76540000D01*
X113739761Y-76540000D02*
X113787380Y-76635238D01*
X113787380Y-76825714D01*
X113739761Y-76920952D01*
X113692142Y-76968571D01*
X113596904Y-77016190D01*
X113311190Y-77016190D01*
X113215952Y-76968571D01*
X113168333Y-76920952D01*
X113120714Y-76825714D01*
X113120714Y-76635238D01*
X113168333Y-76540000D01*
X113739761Y-75682857D02*
X113787380Y-75778095D01*
X113787380Y-75968571D01*
X113739761Y-76063809D01*
X113644523Y-76111428D01*
X113263571Y-76111428D01*
X113168333Y-76063809D01*
X113120714Y-75968571D01*
X113120714Y-75778095D01*
X113168333Y-75682857D01*
X113263571Y-75635238D01*
X113358809Y-75635238D01*
X113454047Y-76111428D01*
X113787380Y-75206666D02*
X113120714Y-75206666D01*
X113311190Y-75206666D02*
X113215952Y-75159047D01*
X113168333Y-75111428D01*
X113120714Y-75016190D01*
X113120714Y-74920952D01*
X113406428Y-74587619D02*
X113406428Y-73825714D01*
X112787380Y-73349523D02*
X113596904Y-73349523D01*
X113692142Y-73301904D01*
X113739761Y-73254285D01*
X113787380Y-73159047D01*
X113787380Y-72968571D01*
X113739761Y-72873333D01*
X113692142Y-72825714D01*
X113596904Y-72778095D01*
X112787380Y-72778095D01*
X113501666Y-72349523D02*
X113501666Y-71873333D01*
X113787380Y-72444761D02*
X112787380Y-72111428D01*
X113787380Y-71778095D01*
X113787380Y-70873333D02*
X113311190Y-71206666D01*
X113787380Y-71444761D02*
X112787380Y-71444761D01*
X112787380Y-71063809D01*
X112835000Y-70968571D01*
X112882619Y-70920952D01*
X112977857Y-70873333D01*
X113120714Y-70873333D01*
X113215952Y-70920952D01*
X113263571Y-70968571D01*
X113311190Y-71063809D01*
X113311190Y-71444761D01*
X112787380Y-70587619D02*
X112787380Y-70016190D01*
X113787380Y-70301904D02*
X112787380Y-70301904D01*
%TO.C,AE-MICRO-SD-DIP1*%
X174184761Y-88736666D02*
X174660952Y-88736666D01*
X174089523Y-89022380D02*
X174422857Y-88022380D01*
X174756190Y-89022380D01*
X175089523Y-88498571D02*
X175422857Y-88498571D01*
X175565714Y-89022380D02*
X175089523Y-89022380D01*
X175089523Y-88022380D01*
X175565714Y-88022380D01*
X175994285Y-88641428D02*
X176756190Y-88641428D01*
X177232380Y-89022380D02*
X177232380Y-88022380D01*
X177565714Y-88736666D01*
X177899047Y-88022380D01*
X177899047Y-89022380D01*
X178375238Y-89022380D02*
X178375238Y-88022380D01*
X179422857Y-88927142D02*
X179375238Y-88974761D01*
X179232380Y-89022380D01*
X179137142Y-89022380D01*
X178994285Y-88974761D01*
X178899047Y-88879523D01*
X178851428Y-88784285D01*
X178803809Y-88593809D01*
X178803809Y-88450952D01*
X178851428Y-88260476D01*
X178899047Y-88165238D01*
X178994285Y-88070000D01*
X179137142Y-88022380D01*
X179232380Y-88022380D01*
X179375238Y-88070000D01*
X179422857Y-88117619D01*
X180422857Y-89022380D02*
X180089523Y-88546190D01*
X179851428Y-89022380D02*
X179851428Y-88022380D01*
X180232380Y-88022380D01*
X180327619Y-88070000D01*
X180375238Y-88117619D01*
X180422857Y-88212857D01*
X180422857Y-88355714D01*
X180375238Y-88450952D01*
X180327619Y-88498571D01*
X180232380Y-88546190D01*
X179851428Y-88546190D01*
X181041904Y-88022380D02*
X181232380Y-88022380D01*
X181327619Y-88070000D01*
X181422857Y-88165238D01*
X181470476Y-88355714D01*
X181470476Y-88689047D01*
X181422857Y-88879523D01*
X181327619Y-88974761D01*
X181232380Y-89022380D01*
X181041904Y-89022380D01*
X180946666Y-88974761D01*
X180851428Y-88879523D01*
X180803809Y-88689047D01*
X180803809Y-88355714D01*
X180851428Y-88165238D01*
X180946666Y-88070000D01*
X181041904Y-88022380D01*
X181899047Y-88641428D02*
X182660952Y-88641428D01*
X183089523Y-88974761D02*
X183232380Y-89022380D01*
X183470476Y-89022380D01*
X183565714Y-88974761D01*
X183613333Y-88927142D01*
X183660952Y-88831904D01*
X183660952Y-88736666D01*
X183613333Y-88641428D01*
X183565714Y-88593809D01*
X183470476Y-88546190D01*
X183280000Y-88498571D01*
X183184761Y-88450952D01*
X183137142Y-88403333D01*
X183089523Y-88308095D01*
X183089523Y-88212857D01*
X183137142Y-88117619D01*
X183184761Y-88070000D01*
X183280000Y-88022380D01*
X183518095Y-88022380D01*
X183660952Y-88070000D01*
X184089523Y-89022380D02*
X184089523Y-88022380D01*
X184327619Y-88022380D01*
X184470476Y-88070000D01*
X184565714Y-88165238D01*
X184613333Y-88260476D01*
X184660952Y-88450952D01*
X184660952Y-88593809D01*
X184613333Y-88784285D01*
X184565714Y-88879523D01*
X184470476Y-88974761D01*
X184327619Y-89022380D01*
X184089523Y-89022380D01*
X185089523Y-88641428D02*
X185851428Y-88641428D01*
X186327619Y-89022380D02*
X186327619Y-88022380D01*
X186565714Y-88022380D01*
X186708571Y-88070000D01*
X186803809Y-88165238D01*
X186851428Y-88260476D01*
X186899047Y-88450952D01*
X186899047Y-88593809D01*
X186851428Y-88784285D01*
X186803809Y-88879523D01*
X186708571Y-88974761D01*
X186565714Y-89022380D01*
X186327619Y-89022380D01*
X187327619Y-89022380D02*
X187327619Y-88022380D01*
X187803809Y-89022380D02*
X187803809Y-88022380D01*
X188184761Y-88022380D01*
X188280000Y-88070000D01*
X188327619Y-88117619D01*
X188375238Y-88212857D01*
X188375238Y-88355714D01*
X188327619Y-88450952D01*
X188280000Y-88498571D01*
X188184761Y-88546190D01*
X187803809Y-88546190D01*
%TO.C,ICS-board1*%
X133313809Y-87752380D02*
X133313809Y-86752380D01*
X134361428Y-87657142D02*
X134313809Y-87704761D01*
X134170952Y-87752380D01*
X134075714Y-87752380D01*
X133932857Y-87704761D01*
X133837619Y-87609523D01*
X133790000Y-87514285D01*
X133742380Y-87323809D01*
X133742380Y-87180952D01*
X133790000Y-86990476D01*
X133837619Y-86895238D01*
X133932857Y-86800000D01*
X134075714Y-86752380D01*
X134170952Y-86752380D01*
X134313809Y-86800000D01*
X134361428Y-86847619D01*
X134742380Y-87704761D02*
X134885238Y-87752380D01*
X135123333Y-87752380D01*
X135218571Y-87704761D01*
X135266190Y-87657142D01*
X135313809Y-87561904D01*
X135313809Y-87466666D01*
X135266190Y-87371428D01*
X135218571Y-87323809D01*
X135123333Y-87276190D01*
X134932857Y-87228571D01*
X134837619Y-87180952D01*
X134790000Y-87133333D01*
X134742380Y-87038095D01*
X134742380Y-86942857D01*
X134790000Y-86847619D01*
X134837619Y-86800000D01*
X134932857Y-86752380D01*
X135170952Y-86752380D01*
X135313809Y-86800000D01*
%TO.C,Air-UART1*%
X113501666Y-91748095D02*
X113501666Y-91271904D01*
X113787380Y-91843333D02*
X112787380Y-91510000D01*
X113787380Y-91176666D01*
X113787380Y-90843333D02*
X113120714Y-90843333D01*
X112787380Y-90843333D02*
X112835000Y-90890952D01*
X112882619Y-90843333D01*
X112835000Y-90795714D01*
X112787380Y-90843333D01*
X112882619Y-90843333D01*
X113787380Y-90367142D02*
X113120714Y-90367142D01*
X113311190Y-90367142D02*
X113215952Y-90319523D01*
X113168333Y-90271904D01*
X113120714Y-90176666D01*
X113120714Y-90081428D01*
X113406428Y-89748095D02*
X113406428Y-88986190D01*
X112787380Y-88510000D02*
X113596904Y-88510000D01*
X113692142Y-88462380D01*
X113739761Y-88414761D01*
X113787380Y-88319523D01*
X113787380Y-88129047D01*
X113739761Y-88033809D01*
X113692142Y-87986190D01*
X113596904Y-87938571D01*
X112787380Y-87938571D01*
X113501666Y-87510000D02*
X113501666Y-87033809D01*
X113787380Y-87605238D02*
X112787380Y-87271904D01*
X113787380Y-86938571D01*
X113787380Y-86033809D02*
X113311190Y-86367142D01*
X113787380Y-86605238D02*
X112787380Y-86605238D01*
X112787380Y-86224285D01*
X112835000Y-86129047D01*
X112882619Y-86081428D01*
X112977857Y-86033809D01*
X113120714Y-86033809D01*
X113215952Y-86081428D01*
X113263571Y-86129047D01*
X113311190Y-86224285D01*
X113311190Y-86605238D01*
X112787380Y-85748095D02*
X112787380Y-85176666D01*
X113787380Y-85462380D02*
X112787380Y-85462380D01*
%TO.C,R1*%
X128107619Y-57510476D02*
X128060000Y-57462857D01*
X128012380Y-57367619D01*
X128012380Y-57129523D01*
X128060000Y-57034285D01*
X128107619Y-56986666D01*
X128202857Y-56939047D01*
X128298095Y-56939047D01*
X128440952Y-56986666D01*
X129012380Y-57558095D01*
X129012380Y-56939047D01*
X129012380Y-56510476D02*
X128012380Y-56510476D01*
X128631428Y-56415238D02*
X129012380Y-56129523D01*
X128345714Y-56129523D02*
X128726666Y-56510476D01*
%TO.C,Y1*%
X176652380Y-58629523D02*
X176652380Y-59200952D01*
X176652380Y-58915238D02*
X175652380Y-58915238D01*
X175795238Y-59010476D01*
X175890476Y-59105714D01*
X175938095Y-59200952D01*
X175652380Y-57772380D02*
X175652380Y-57962857D01*
X175700000Y-58058095D01*
X175747619Y-58105714D01*
X175890476Y-58200952D01*
X176080952Y-58248571D01*
X176461904Y-58248571D01*
X176557142Y-58200952D01*
X176604761Y-58153333D01*
X176652380Y-58058095D01*
X176652380Y-57867619D01*
X176604761Y-57772380D01*
X176557142Y-57724761D01*
X176461904Y-57677142D01*
X176223809Y-57677142D01*
X176128571Y-57724761D01*
X176080952Y-57772380D01*
X176033333Y-57867619D01*
X176033333Y-58058095D01*
X176080952Y-58153333D01*
X176128571Y-58200952D01*
X176223809Y-58248571D01*
X176652380Y-57248571D02*
X175652380Y-57248571D01*
X176366666Y-56915238D01*
X175652380Y-56581904D01*
X176652380Y-56581904D01*
X176652380Y-56105714D02*
X175652380Y-56105714D01*
X176128571Y-56105714D02*
X176128571Y-55534285D01*
X176652380Y-55534285D02*
X175652380Y-55534285D01*
X175985714Y-55058095D02*
X175985714Y-54534285D01*
X176652380Y-55058095D01*
X176652380Y-54534285D01*
%TO.C,Speaker1*%
X186129761Y-59581904D02*
X186177380Y-59439047D01*
X186177380Y-59200952D01*
X186129761Y-59105714D01*
X186082142Y-59058095D01*
X185986904Y-59010476D01*
X185891666Y-59010476D01*
X185796428Y-59058095D01*
X185748809Y-59105714D01*
X185701190Y-59200952D01*
X185653571Y-59391428D01*
X185605952Y-59486666D01*
X185558333Y-59534285D01*
X185463095Y-59581904D01*
X185367857Y-59581904D01*
X185272619Y-59534285D01*
X185225000Y-59486666D01*
X185177380Y-59391428D01*
X185177380Y-59153333D01*
X185225000Y-59010476D01*
X185510714Y-58581904D02*
X186510714Y-58581904D01*
X185558333Y-58581904D02*
X185510714Y-58486666D01*
X185510714Y-58296190D01*
X185558333Y-58200952D01*
X185605952Y-58153333D01*
X185701190Y-58105714D01*
X185986904Y-58105714D01*
X186082142Y-58153333D01*
X186129761Y-58200952D01*
X186177380Y-58296190D01*
X186177380Y-58486666D01*
X186129761Y-58581904D01*
X186129761Y-57296190D02*
X186177380Y-57391428D01*
X186177380Y-57581904D01*
X186129761Y-57677142D01*
X186034523Y-57724761D01*
X185653571Y-57724761D01*
X185558333Y-57677142D01*
X185510714Y-57581904D01*
X185510714Y-57391428D01*
X185558333Y-57296190D01*
X185653571Y-57248571D01*
X185748809Y-57248571D01*
X185844047Y-57724761D01*
X186177380Y-56391428D02*
X185653571Y-56391428D01*
X185558333Y-56439047D01*
X185510714Y-56534285D01*
X185510714Y-56724761D01*
X185558333Y-56820000D01*
X186129761Y-56391428D02*
X186177380Y-56486666D01*
X186177380Y-56724761D01*
X186129761Y-56820000D01*
X186034523Y-56867619D01*
X185939285Y-56867619D01*
X185844047Y-56820000D01*
X185796428Y-56724761D01*
X185796428Y-56486666D01*
X185748809Y-56391428D01*
X186177380Y-55915238D02*
X185177380Y-55915238D01*
X185796428Y-55820000D02*
X186177380Y-55534285D01*
X185510714Y-55534285D02*
X185891666Y-55915238D01*
X186129761Y-54724761D02*
X186177380Y-54820000D01*
X186177380Y-55010476D01*
X186129761Y-55105714D01*
X186034523Y-55153333D01*
X185653571Y-55153333D01*
X185558333Y-55105714D01*
X185510714Y-55010476D01*
X185510714Y-54820000D01*
X185558333Y-54724761D01*
X185653571Y-54677142D01*
X185748809Y-54677142D01*
X185844047Y-55153333D01*
X186177380Y-54248571D02*
X185510714Y-54248571D01*
X185701190Y-54248571D02*
X185605952Y-54200952D01*
X185558333Y-54153333D01*
X185510714Y-54058095D01*
X185510714Y-53962857D01*
%TO.C,M78AR05-3*%
X120772380Y-92831904D02*
X119772380Y-92831904D01*
X120486666Y-92498571D01*
X119772380Y-92165238D01*
X120772380Y-92165238D01*
X119772380Y-91784285D02*
X119772380Y-91117619D01*
X120772380Y-91546190D01*
X120200952Y-90593809D02*
X120153333Y-90689047D01*
X120105714Y-90736666D01*
X120010476Y-90784285D01*
X119962857Y-90784285D01*
X119867619Y-90736666D01*
X119820000Y-90689047D01*
X119772380Y-90593809D01*
X119772380Y-90403333D01*
X119820000Y-90308095D01*
X119867619Y-90260476D01*
X119962857Y-90212857D01*
X120010476Y-90212857D01*
X120105714Y-90260476D01*
X120153333Y-90308095D01*
X120200952Y-90403333D01*
X120200952Y-90593809D01*
X120248571Y-90689047D01*
X120296190Y-90736666D01*
X120391428Y-90784285D01*
X120581904Y-90784285D01*
X120677142Y-90736666D01*
X120724761Y-90689047D01*
X120772380Y-90593809D01*
X120772380Y-90403333D01*
X120724761Y-90308095D01*
X120677142Y-90260476D01*
X120581904Y-90212857D01*
X120391428Y-90212857D01*
X120296190Y-90260476D01*
X120248571Y-90308095D01*
X120200952Y-90403333D01*
X120486666Y-89831904D02*
X120486666Y-89355714D01*
X120772380Y-89927142D02*
X119772380Y-89593809D01*
X120772380Y-89260476D01*
X120772380Y-88355714D02*
X120296190Y-88689047D01*
X120772380Y-88927142D02*
X119772380Y-88927142D01*
X119772380Y-88546190D01*
X119820000Y-88450952D01*
X119867619Y-88403333D01*
X119962857Y-88355714D01*
X120105714Y-88355714D01*
X120200952Y-88403333D01*
X120248571Y-88450952D01*
X120296190Y-88546190D01*
X120296190Y-88927142D01*
X119772380Y-87736666D02*
X119772380Y-87641428D01*
X119820000Y-87546190D01*
X119867619Y-87498571D01*
X119962857Y-87450952D01*
X120153333Y-87403333D01*
X120391428Y-87403333D01*
X120581904Y-87450952D01*
X120677142Y-87498571D01*
X120724761Y-87546190D01*
X120772380Y-87641428D01*
X120772380Y-87736666D01*
X120724761Y-87831904D01*
X120677142Y-87879523D01*
X120581904Y-87927142D01*
X120391428Y-87974761D01*
X120153333Y-87974761D01*
X119962857Y-87927142D01*
X119867619Y-87879523D01*
X119820000Y-87831904D01*
X119772380Y-87736666D01*
X119772380Y-86498571D02*
X119772380Y-86974761D01*
X120248571Y-87022380D01*
X120200952Y-86974761D01*
X120153333Y-86879523D01*
X120153333Y-86641428D01*
X120200952Y-86546190D01*
X120248571Y-86498571D01*
X120343809Y-86450952D01*
X120581904Y-86450952D01*
X120677142Y-86498571D01*
X120724761Y-86546190D01*
X120772380Y-86641428D01*
X120772380Y-86879523D01*
X120724761Y-86974761D01*
X120677142Y-87022380D01*
X120391428Y-86022380D02*
X120391428Y-85260476D01*
X119772380Y-84879523D02*
X119772380Y-84260476D01*
X120153333Y-84593809D01*
X120153333Y-84450952D01*
X120200952Y-84355714D01*
X120248571Y-84308095D01*
X120343809Y-84260476D01*
X120581904Y-84260476D01*
X120677142Y-84308095D01*
X120724761Y-84355714D01*
X120772380Y-84450952D01*
X120772380Y-84736666D01*
X120724761Y-84831904D01*
X120677142Y-84879523D01*
%TO.C,DPS310*%
X153213333Y-82672380D02*
X153213333Y-81672380D01*
X153451428Y-81672380D01*
X153594285Y-81720000D01*
X153689523Y-81815238D01*
X153737142Y-81910476D01*
X153784761Y-82100952D01*
X153784761Y-82243809D01*
X153737142Y-82434285D01*
X153689523Y-82529523D01*
X153594285Y-82624761D01*
X153451428Y-82672380D01*
X153213333Y-82672380D01*
X154213333Y-82672380D02*
X154213333Y-81672380D01*
X154594285Y-81672380D01*
X154689523Y-81720000D01*
X154737142Y-81767619D01*
X154784761Y-81862857D01*
X154784761Y-82005714D01*
X154737142Y-82100952D01*
X154689523Y-82148571D01*
X154594285Y-82196190D01*
X154213333Y-82196190D01*
X155165714Y-82624761D02*
X155308571Y-82672380D01*
X155546666Y-82672380D01*
X155641904Y-82624761D01*
X155689523Y-82577142D01*
X155737142Y-82481904D01*
X155737142Y-82386666D01*
X155689523Y-82291428D01*
X155641904Y-82243809D01*
X155546666Y-82196190D01*
X155356190Y-82148571D01*
X155260952Y-82100952D01*
X155213333Y-82053333D01*
X155165714Y-81958095D01*
X155165714Y-81862857D01*
X155213333Y-81767619D01*
X155260952Y-81720000D01*
X155356190Y-81672380D01*
X155594285Y-81672380D01*
X155737142Y-81720000D01*
X156070476Y-81672380D02*
X156689523Y-81672380D01*
X156356190Y-82053333D01*
X156499047Y-82053333D01*
X156594285Y-82100952D01*
X156641904Y-82148571D01*
X156689523Y-82243809D01*
X156689523Y-82481904D01*
X156641904Y-82577142D01*
X156594285Y-82624761D01*
X156499047Y-82672380D01*
X156213333Y-82672380D01*
X156118095Y-82624761D01*
X156070476Y-82577142D01*
X157641904Y-82672380D02*
X157070476Y-82672380D01*
X157356190Y-82672380D02*
X157356190Y-81672380D01*
X157260952Y-81815238D01*
X157165714Y-81910476D01*
X157070476Y-81958095D01*
X158260952Y-81672380D02*
X158356190Y-81672380D01*
X158451428Y-81720000D01*
X158499047Y-81767619D01*
X158546666Y-81862857D01*
X158594285Y-82053333D01*
X158594285Y-82291428D01*
X158546666Y-82481904D01*
X158499047Y-82577142D01*
X158451428Y-82624761D01*
X158356190Y-82672380D01*
X158260952Y-82672380D01*
X158165714Y-82624761D01*
X158118095Y-82577142D01*
X158070476Y-82481904D01*
X158022857Y-82291428D01*
X158022857Y-82053333D01*
X158070476Y-81862857D01*
X158118095Y-81767619D01*
X158165714Y-81720000D01*
X158260952Y-81672380D01*
%TO.C,M78AR05-1*%
X120772380Y-62301404D02*
X119772380Y-62301404D01*
X120486666Y-61968071D01*
X119772380Y-61634738D01*
X120772380Y-61634738D01*
X119772380Y-61253785D02*
X119772380Y-60587119D01*
X120772380Y-61015690D01*
X120200952Y-60063309D02*
X120153333Y-60158547D01*
X120105714Y-60206166D01*
X120010476Y-60253785D01*
X119962857Y-60253785D01*
X119867619Y-60206166D01*
X119820000Y-60158547D01*
X119772380Y-60063309D01*
X119772380Y-59872833D01*
X119820000Y-59777595D01*
X119867619Y-59729976D01*
X119962857Y-59682357D01*
X120010476Y-59682357D01*
X120105714Y-59729976D01*
X120153333Y-59777595D01*
X120200952Y-59872833D01*
X120200952Y-60063309D01*
X120248571Y-60158547D01*
X120296190Y-60206166D01*
X120391428Y-60253785D01*
X120581904Y-60253785D01*
X120677142Y-60206166D01*
X120724761Y-60158547D01*
X120772380Y-60063309D01*
X120772380Y-59872833D01*
X120724761Y-59777595D01*
X120677142Y-59729976D01*
X120581904Y-59682357D01*
X120391428Y-59682357D01*
X120296190Y-59729976D01*
X120248571Y-59777595D01*
X120200952Y-59872833D01*
X120486666Y-59301404D02*
X120486666Y-58825214D01*
X120772380Y-59396642D02*
X119772380Y-59063309D01*
X120772380Y-58729976D01*
X120772380Y-57825214D02*
X120296190Y-58158547D01*
X120772380Y-58396642D02*
X119772380Y-58396642D01*
X119772380Y-58015690D01*
X119820000Y-57920452D01*
X119867619Y-57872833D01*
X119962857Y-57825214D01*
X120105714Y-57825214D01*
X120200952Y-57872833D01*
X120248571Y-57920452D01*
X120296190Y-58015690D01*
X120296190Y-58396642D01*
X119772380Y-57206166D02*
X119772380Y-57110928D01*
X119820000Y-57015690D01*
X119867619Y-56968071D01*
X119962857Y-56920452D01*
X120153333Y-56872833D01*
X120391428Y-56872833D01*
X120581904Y-56920452D01*
X120677142Y-56968071D01*
X120724761Y-57015690D01*
X120772380Y-57110928D01*
X120772380Y-57206166D01*
X120724761Y-57301404D01*
X120677142Y-57349023D01*
X120581904Y-57396642D01*
X120391428Y-57444261D01*
X120153333Y-57444261D01*
X119962857Y-57396642D01*
X119867619Y-57349023D01*
X119820000Y-57301404D01*
X119772380Y-57206166D01*
X119772380Y-55968071D02*
X119772380Y-56444261D01*
X120248571Y-56491880D01*
X120200952Y-56444261D01*
X120153333Y-56349023D01*
X120153333Y-56110928D01*
X120200952Y-56015690D01*
X120248571Y-55968071D01*
X120343809Y-55920452D01*
X120581904Y-55920452D01*
X120677142Y-55968071D01*
X120724761Y-56015690D01*
X120772380Y-56110928D01*
X120772380Y-56349023D01*
X120724761Y-56444261D01*
X120677142Y-56491880D01*
X120391428Y-55491880D02*
X120391428Y-54729976D01*
X120772380Y-53729976D02*
X120772380Y-54301404D01*
X120772380Y-54015690D02*
X119772380Y-54015690D01*
X119915238Y-54110928D01*
X120010476Y-54206166D01*
X120058095Y-54301404D01*
%TO.C,AE-BNO55*%
X130480476Y-68416666D02*
X130956666Y-68416666D01*
X130385238Y-68702380D02*
X130718571Y-67702380D01*
X131051904Y-68702380D01*
X131385238Y-68178571D02*
X131718571Y-68178571D01*
X131861428Y-68702380D02*
X131385238Y-68702380D01*
X131385238Y-67702380D01*
X131861428Y-67702380D01*
X132290000Y-68321428D02*
X133051904Y-68321428D01*
X133861428Y-68178571D02*
X134004285Y-68226190D01*
X134051904Y-68273809D01*
X134099523Y-68369047D01*
X134099523Y-68511904D01*
X134051904Y-68607142D01*
X134004285Y-68654761D01*
X133909047Y-68702380D01*
X133528095Y-68702380D01*
X133528095Y-67702380D01*
X133861428Y-67702380D01*
X133956666Y-67750000D01*
X134004285Y-67797619D01*
X134051904Y-67892857D01*
X134051904Y-67988095D01*
X134004285Y-68083333D01*
X133956666Y-68130952D01*
X133861428Y-68178571D01*
X133528095Y-68178571D01*
X134528095Y-68702380D02*
X134528095Y-67702380D01*
X135099523Y-68702380D01*
X135099523Y-67702380D01*
X135766190Y-67702380D02*
X135956666Y-67702380D01*
X136051904Y-67750000D01*
X136147142Y-67845238D01*
X136194761Y-68035714D01*
X136194761Y-68369047D01*
X136147142Y-68559523D01*
X136051904Y-68654761D01*
X135956666Y-68702380D01*
X135766190Y-68702380D01*
X135670952Y-68654761D01*
X135575714Y-68559523D01*
X135528095Y-68369047D01*
X135528095Y-68035714D01*
X135575714Y-67845238D01*
X135670952Y-67750000D01*
X135766190Y-67702380D01*
X137099523Y-67702380D02*
X136623333Y-67702380D01*
X136575714Y-68178571D01*
X136623333Y-68130952D01*
X136718571Y-68083333D01*
X136956666Y-68083333D01*
X137051904Y-68130952D01*
X137099523Y-68178571D01*
X137147142Y-68273809D01*
X137147142Y-68511904D01*
X137099523Y-68607142D01*
X137051904Y-68654761D01*
X136956666Y-68702380D01*
X136718571Y-68702380D01*
X136623333Y-68654761D01*
X136575714Y-68607142D01*
X138051904Y-67702380D02*
X137575714Y-67702380D01*
X137528095Y-68178571D01*
X137575714Y-68130952D01*
X137670952Y-68083333D01*
X137909047Y-68083333D01*
X138004285Y-68130952D01*
X138051904Y-68178571D01*
X138099523Y-68273809D01*
X138099523Y-68511904D01*
X138051904Y-68607142D01*
X138004285Y-68654761D01*
X137909047Y-68702380D01*
X137670952Y-68702380D01*
X137575714Y-68654761D01*
X137528095Y-68607142D01*
%TO.C,Air1*%
X103659285Y-97626666D02*
X104135476Y-97626666D01*
X103564047Y-97912380D02*
X103897380Y-96912380D01*
X104230714Y-97912380D01*
X104564047Y-97912380D02*
X104564047Y-97245714D01*
X104564047Y-96912380D02*
X104516428Y-96960000D01*
X104564047Y-97007619D01*
X104611666Y-96960000D01*
X104564047Y-96912380D01*
X104564047Y-97007619D01*
X105040238Y-97912380D02*
X105040238Y-97245714D01*
X105040238Y-97436190D02*
X105087857Y-97340952D01*
X105135476Y-97293333D01*
X105230714Y-97245714D01*
X105325952Y-97245714D01*
%TO.C,ICS1*%
X103468809Y-49652380D02*
X103468809Y-48652380D01*
X104516428Y-49557142D02*
X104468809Y-49604761D01*
X104325952Y-49652380D01*
X104230714Y-49652380D01*
X104087857Y-49604761D01*
X103992619Y-49509523D01*
X103945000Y-49414285D01*
X103897380Y-49223809D01*
X103897380Y-49080952D01*
X103945000Y-48890476D01*
X103992619Y-48795238D01*
X104087857Y-48700000D01*
X104230714Y-48652380D01*
X104325952Y-48652380D01*
X104468809Y-48700000D01*
X104516428Y-48747619D01*
X104897380Y-49604761D02*
X105040238Y-49652380D01*
X105278333Y-49652380D01*
X105373571Y-49604761D01*
X105421190Y-49557142D01*
X105468809Y-49461904D01*
X105468809Y-49366666D01*
X105421190Y-49271428D01*
X105373571Y-49223809D01*
X105278333Y-49176190D01*
X105087857Y-49128571D01*
X104992619Y-49080952D01*
X104945000Y-49033333D01*
X104897380Y-48938095D01*
X104897380Y-48842857D01*
X104945000Y-48747619D01*
X104992619Y-48700000D01*
X105087857Y-48652380D01*
X105325952Y-48652380D01*
X105468809Y-48700000D01*
D12*
%TO.C,Under1*%
X122035000Y-67910000D02*
X122191000Y-67910000D01*
X119719000Y-67910000D02*
X119875000Y-67910000D01*
X119876392Y-64677665D02*
G75*
G03*
X119719484Y-67910000I1078608J-1672335D01*
G01*
X119875163Y-65308870D02*
G75*
G03*
X119875000Y-67390961I1079837J-1041130D01*
G01*
X122035000Y-67390961D02*
G75*
G03*
X122034837Y-65308870I-1080000J1040961D01*
G01*
X122190516Y-67910000D02*
G75*
G03*
X122033608Y-64677665I-1235516J1560000D01*
G01*
%TO.C,GPS-UART1*%
X191350000Y-76930000D02*
X191350000Y-70790000D01*
X197960000Y-66040000D02*
X197960000Y-65540000D01*
X186850000Y-63230000D02*
X186850000Y-64650000D01*
X186850000Y-78350000D02*
X186850000Y-76930000D01*
X197960000Y-76040000D02*
X197960000Y-75540000D01*
X186850000Y-64650000D02*
X191350000Y-64650000D01*
X197960000Y-71040000D02*
X197960000Y-70540000D01*
X192460000Y-68040000D02*
X192460000Y-68540000D01*
X187160000Y-75490000D02*
X187760000Y-75790000D01*
X187160000Y-76090000D02*
X187160000Y-75490000D01*
X192460000Y-71040000D02*
X197960000Y-71040000D01*
X197960000Y-73540000D02*
X197960000Y-73040000D01*
X197960000Y-68040000D02*
X192460000Y-68040000D01*
X197960000Y-75540000D02*
X192460000Y-75540000D01*
X191350000Y-64650000D02*
X191350000Y-70790000D01*
X192460000Y-66040000D02*
X197960000Y-66040000D01*
X192460000Y-75540000D02*
X192460000Y-76040000D01*
X192460000Y-73540000D02*
X197960000Y-73540000D01*
X197960000Y-73040000D02*
X192460000Y-73040000D01*
X198570000Y-78350000D02*
X186850000Y-78350000D01*
X197960000Y-65540000D02*
X192460000Y-65540000D01*
X198570000Y-70790000D02*
X198570000Y-63230000D01*
X198570000Y-70790000D02*
X198570000Y-78350000D01*
X197960000Y-68540000D02*
X197960000Y-68040000D01*
X198570000Y-63230000D02*
X186850000Y-63230000D01*
X192460000Y-73040000D02*
X192460000Y-73540000D01*
X192460000Y-76040000D02*
X197960000Y-76040000D01*
X192460000Y-70540000D02*
X192460000Y-71040000D01*
X186850000Y-76930000D02*
X191350000Y-76930000D01*
X192460000Y-65540000D02*
X192460000Y-66040000D01*
X192460000Y-68540000D02*
X197960000Y-68540000D01*
X187760000Y-75790000D02*
X187160000Y-76090000D01*
X197960000Y-70540000D02*
X192460000Y-70540000D01*
%TO.C,Power1*%
X125060000Y-98696000D02*
X125060000Y-98540000D01*
X125060000Y-96380000D02*
X125060000Y-96224000D01*
X124540961Y-96380000D02*
G75*
G03*
X122458870Y-96380163I-1040961J-1080000D01*
G01*
X121827665Y-98538608D02*
G75*
G03*
X125060000Y-98695516I1672335J1078608D01*
G01*
X125060000Y-96224484D02*
G75*
G03*
X121827665Y-96381392I-1560000J-1235516D01*
G01*
X122458870Y-98539837D02*
G75*
G03*
X124540961Y-98540000I1041130J1079837D01*
G01*
%TO.C,SD1*%
X199355000Y-88760000D02*
X199355000Y-88604000D01*
X199355000Y-91076000D02*
X199355000Y-90920000D01*
X199355000Y-88604484D02*
G75*
G03*
X196122665Y-88761392I-1560000J-1235516D01*
G01*
X198835961Y-88760000D02*
G75*
G03*
X196753870Y-88760163I-1040961J-1080000D01*
G01*
X196753870Y-90919837D02*
G75*
G03*
X198835961Y-90920000I1041130J1079837D01*
G01*
X196122665Y-90918608D02*
G75*
G03*
X199355000Y-91075516I1672335J1078608D01*
G01*
%TO.C,ATP3012*%
X169920000Y-59460000D02*
X169920000Y-54160000D01*
X134240000Y-54160000D02*
X134240000Y-55810000D01*
X169920000Y-54160000D02*
X134240000Y-54160000D01*
X134240000Y-59460000D02*
X169920000Y-59460000D01*
X134240000Y-57810000D02*
X134240000Y-59460000D01*
X134240000Y-57810000D02*
G75*
G03*
X134240000Y-55810000I0J1000000D01*
G01*
%TO.C,G\u002A\u002A\u002A*%
G36*
X179273135Y-65312584D02*
G01*
X179421838Y-65376314D01*
X179479978Y-65458815D01*
X179421621Y-65580935D01*
X179275178Y-65703969D01*
X179083592Y-65798951D01*
X178921211Y-65835719D01*
X178745762Y-65857481D01*
X178635869Y-65886926D01*
X178625609Y-65893748D01*
X178562848Y-66014108D01*
X178517047Y-66196505D01*
X178505674Y-66368589D01*
X178507283Y-66383840D01*
X178585416Y-66566702D01*
X178741274Y-66728452D01*
X178927912Y-66828319D01*
X179034411Y-66841634D01*
X179225662Y-66778938D01*
X179384166Y-66647279D01*
X179468297Y-66486271D01*
X179472059Y-66425105D01*
X179512724Y-66285127D01*
X179627496Y-66130012D01*
X179773344Y-66010493D01*
X179851006Y-65978358D01*
X179944228Y-66015626D01*
X180011688Y-66147364D01*
X180044147Y-66334674D01*
X180032366Y-66538654D01*
X180006927Y-66634945D01*
X179834258Y-66937606D01*
X179561163Y-67194038D01*
X179347771Y-67318500D01*
X179005229Y-67409966D01*
X178663811Y-67373400D01*
X178341091Y-67214154D01*
X178054640Y-66937575D01*
X178041627Y-66920818D01*
X177902734Y-66640555D01*
X177878673Y-66337373D01*
X177957808Y-66033826D01*
X178128508Y-65752468D01*
X178379139Y-65515853D01*
X178698068Y-65346535D01*
X178880788Y-65293889D01*
X179078053Y-65281054D01*
X179273135Y-65312584D01*
G37*
G36*
X174828049Y-68865707D02*
G01*
X174762493Y-68760204D01*
X174739944Y-68684694D01*
X174747278Y-68624890D01*
X174775292Y-68583993D01*
X175706885Y-68583993D01*
X175819611Y-68672051D01*
X175861129Y-68687034D01*
X175994500Y-68667673D01*
X176138914Y-68561450D01*
X176259267Y-68407725D01*
X176320453Y-68245857D01*
X176318026Y-68174752D01*
X176248468Y-68069144D01*
X176119311Y-68081703D01*
X175933596Y-68211695D01*
X175853759Y-68286821D01*
X175718311Y-68457927D01*
X175706885Y-68583993D01*
X174775292Y-68583993D01*
X174816410Y-68523965D01*
X174967426Y-68365139D01*
X175174381Y-68170717D01*
X175411323Y-67963006D01*
X175652307Y-67764311D01*
X175871384Y-67596939D01*
X176042608Y-67483196D01*
X176115445Y-67448738D01*
X176350246Y-67422727D01*
X176598510Y-67461958D01*
X176796275Y-67554527D01*
X176826929Y-67581141D01*
X176909870Y-67728470D01*
X176952768Y-67928997D01*
X176954019Y-67956441D01*
X176959452Y-68210084D01*
X177334026Y-68341867D01*
X177621302Y-68448184D01*
X177792324Y-68533860D01*
X177859270Y-68617835D01*
X177834320Y-68719046D01*
X177729651Y-68856430D01*
X177692232Y-68898896D01*
X177543674Y-69053534D01*
X177443898Y-69118305D01*
X177361896Y-69111479D01*
X177345260Y-69103325D01*
X177215503Y-69045727D01*
X177019334Y-68970971D01*
X176932814Y-68940594D01*
X176740709Y-68884956D01*
X176615991Y-68891289D01*
X176502374Y-68968961D01*
X176448280Y-69021253D01*
X176264825Y-69204709D01*
X176492895Y-69432778D01*
X176628460Y-69590826D01*
X176710153Y-69729447D01*
X176720965Y-69774883D01*
X176675661Y-69889507D01*
X176563636Y-70037926D01*
X176420723Y-70183475D01*
X176282752Y-70289492D01*
X176188203Y-70320038D01*
X176116509Y-70265781D01*
X175972965Y-70128947D01*
X175775165Y-69927264D01*
X175540700Y-69678464D01*
X175405787Y-69531582D01*
X175137391Y-69234455D01*
X175099691Y-69191187D01*
X174948914Y-69018143D01*
X174828049Y-68865707D01*
G37*
G36*
X177311014Y-66521613D02*
G01*
X177442602Y-66599412D01*
X177620280Y-66758545D01*
X177866368Y-67007048D01*
X177883905Y-67025089D01*
X178110797Y-67266447D01*
X178311022Y-67493812D01*
X178459958Y-67678384D01*
X178525470Y-67775569D01*
X178584575Y-67910106D01*
X178572687Y-68011414D01*
X178476988Y-68132045D01*
X178425858Y-68184025D01*
X178280675Y-68306853D01*
X178162029Y-68369331D01*
X178132948Y-68371149D01*
X178060298Y-68316339D01*
X177921116Y-68182449D01*
X177736425Y-67992358D01*
X177527243Y-67768945D01*
X177314593Y-67535087D01*
X177119496Y-67313664D01*
X176962973Y-67127556D01*
X176866045Y-66999639D01*
X176852613Y-66977668D01*
X176843869Y-66864923D01*
X176942400Y-66723622D01*
X176969594Y-66695840D01*
X177096830Y-66577863D01*
X177203196Y-66517110D01*
X177311014Y-66521613D01*
G37*
G36*
X172458940Y-75702437D02*
G01*
X172393027Y-75480370D01*
X172393004Y-75480178D01*
X172339069Y-75375296D01*
X172225239Y-75380206D01*
X172067089Y-75493502D01*
X172048993Y-75511181D01*
X171898366Y-75644947D01*
X171689401Y-75810403D01*
X171530687Y-75926610D01*
X171338298Y-76055952D01*
X171222696Y-76111376D01*
X171154630Y-76101528D01*
X171113287Y-76049992D01*
X171088721Y-75991708D01*
X171098219Y-75929189D01*
X171156474Y-75842853D01*
X171278177Y-75713122D01*
X171478021Y-75520414D01*
X171589591Y-75415235D01*
X171827839Y-75189287D01*
X171985408Y-75029969D01*
X172080135Y-74912495D01*
X172129854Y-74812081D01*
X172152400Y-74703943D01*
X172154762Y-74680230D01*
X172967709Y-74680230D01*
X173013068Y-74758144D01*
X173133483Y-74902374D01*
X173304897Y-75088483D01*
X173503250Y-75292025D01*
X173704485Y-75488560D01*
X173884542Y-75653646D01*
X174019365Y-75762841D01*
X174055824Y-75785700D01*
X174112954Y-75805714D01*
X174176816Y-75794813D01*
X174265507Y-75739529D01*
X174397120Y-75626391D01*
X174589752Y-75441933D01*
X174808464Y-75225491D01*
X175064396Y-74973340D01*
X175240265Y-74807761D01*
X175349142Y-74718439D01*
X175404097Y-74695058D01*
X175418201Y-74727302D01*
X175416510Y-74745628D01*
X175424666Y-74859618D01*
X175458554Y-74890620D01*
X175550319Y-74844746D01*
X175674501Y-74735367D01*
X175790813Y-74604846D01*
X175858967Y-74495550D01*
X175863297Y-74465007D01*
X175795638Y-74445570D01*
X175633232Y-74458611D01*
X175410997Y-74501284D01*
X175407180Y-74502184D01*
X175025821Y-74566752D01*
X174634094Y-74589065D01*
X174263479Y-74571462D01*
X173945458Y-74516276D01*
X173711515Y-74425845D01*
X173638698Y-74370973D01*
X173661701Y-74338951D01*
X173785614Y-74324494D01*
X173855275Y-74325169D01*
X174207334Y-74318059D01*
X174587244Y-74278944D01*
X174922328Y-74215917D01*
X174983427Y-74199469D01*
X175199970Y-74141621D01*
X175380934Y-74099394D01*
X175577836Y-74034929D01*
X175859794Y-73912090D01*
X176199329Y-73745969D01*
X176568962Y-73551660D01*
X176941217Y-73344253D01*
X177288613Y-73138841D01*
X177583674Y-72950515D01*
X177798921Y-72794369D01*
X177867358Y-72733750D01*
X177967948Y-72600476D01*
X178003858Y-72496927D01*
X178045732Y-72417978D01*
X178176155Y-72282293D01*
X178402326Y-72083108D01*
X178730647Y-71814301D01*
X178997734Y-71603101D01*
X179228234Y-71426078D01*
X179401680Y-71298561D01*
X179497603Y-71235871D01*
X179508303Y-71231998D01*
X179542701Y-71230912D01*
X179573537Y-71210071D01*
X179620773Y-71143098D01*
X179704376Y-71003615D01*
X179784226Y-70867456D01*
X179898695Y-70648974D01*
X180009901Y-70397648D01*
X180106142Y-70145950D01*
X180175719Y-69926353D01*
X180206929Y-69771331D01*
X180198609Y-69717442D01*
X180199028Y-69644460D01*
X180210681Y-69630194D01*
X180244937Y-69545716D01*
X180294354Y-69362030D01*
X180350436Y-69112216D01*
X180374836Y-68990893D01*
X180427983Y-68726912D01*
X180473486Y-68518584D01*
X180504385Y-68397021D01*
X180511746Y-68378837D01*
X180540201Y-68300175D01*
X180581336Y-68128086D01*
X180628503Y-67898716D01*
X180675057Y-67648209D01*
X180714350Y-67412711D01*
X180739736Y-67228367D01*
X180744568Y-67131324D01*
X180742249Y-67125315D01*
X180689791Y-67165255D01*
X180550328Y-67292253D01*
X180331978Y-67498437D01*
X180042859Y-67775927D01*
X179691091Y-68116849D01*
X179284792Y-68513326D01*
X178832080Y-68957486D01*
X178341073Y-69441451D01*
X177819890Y-69957345D01*
X177689752Y-70086491D01*
X177133101Y-70637776D01*
X176581636Y-71181286D01*
X176046639Y-71706063D01*
X175539397Y-72201155D01*
X175071193Y-72655605D01*
X174653313Y-73058462D01*
X174297042Y-73398768D01*
X174013666Y-73665568D01*
X173820182Y-73842818D01*
X173539174Y-74097883D01*
X173297164Y-74325780D01*
X173110688Y-74510265D01*
X172996283Y-74635094D01*
X172967709Y-74680230D01*
X172154762Y-74680230D01*
X172160589Y-74621729D01*
X172164492Y-74435970D01*
X172144979Y-74310636D01*
X172134123Y-74291836D01*
X172061097Y-74308415D01*
X171919006Y-74414767D01*
X171762090Y-74561250D01*
X171582975Y-74728105D01*
X171428292Y-74852149D01*
X171335633Y-74904792D01*
X171281100Y-74899018D01*
X171205385Y-74850465D01*
X171094229Y-74745041D01*
X170933378Y-74568654D01*
X170708574Y-74307214D01*
X170595312Y-74173003D01*
X170367039Y-73906419D01*
X170166388Y-73681110D01*
X170010182Y-73515282D01*
X169915250Y-73427146D01*
X169897389Y-73417668D01*
X169821465Y-73459744D01*
X169674543Y-73571664D01*
X169484236Y-73731969D01*
X169420946Y-73787956D01*
X169165592Y-74009290D01*
X168980838Y-74142753D01*
X168841786Y-74195028D01*
X168723536Y-74172801D01*
X168601185Y-74082754D01*
X168540543Y-74024276D01*
X168396680Y-73849738D01*
X168364364Y-73728344D01*
X168367674Y-73719103D01*
X168429575Y-73650980D01*
X168579970Y-73511608D01*
X168803219Y-73314695D01*
X169083684Y-73073944D01*
X169405722Y-72803063D01*
X169545229Y-72687229D01*
X169903390Y-72390807D01*
X170249517Y-72104062D01*
X170562086Y-71844844D01*
X170819577Y-71631006D01*
X171000465Y-71480398D01*
X171031635Y-71454350D01*
X171252683Y-71282771D01*
X171412549Y-71206662D01*
X171543716Y-71225110D01*
X171678663Y-71337208D01*
X171762492Y-71433878D01*
X171939584Y-71648308D01*
X171438570Y-72082394D01*
X171238079Y-72253071D01*
X171098695Y-72381344D01*
X171024041Y-72488971D01*
X171017739Y-72597713D01*
X171083413Y-72729330D01*
X171224683Y-72905583D01*
X171445175Y-73148231D01*
X171653757Y-73374887D01*
X171873136Y-73623794D01*
X172049509Y-73841134D01*
X172165338Y-74004252D01*
X172203221Y-74084560D01*
X172228906Y-74164986D01*
X172291539Y-74128285D01*
X172377114Y-74102344D01*
X172498538Y-74182378D01*
X172532777Y-74215344D01*
X172655507Y-74318470D01*
X172755363Y-74322611D01*
X172874291Y-74248012D01*
X173047421Y-74107641D01*
X173301621Y-73884653D01*
X173627203Y-73588544D01*
X174014476Y-73228807D01*
X174453753Y-72814935D01*
X174935344Y-72356424D01*
X175449560Y-71862766D01*
X175986714Y-71343457D01*
X176537116Y-70807989D01*
X177091077Y-70265858D01*
X177638908Y-69726556D01*
X178170922Y-69199578D01*
X178677430Y-68694418D01*
X179148742Y-68220570D01*
X179575168Y-67787528D01*
X179947023Y-67404785D01*
X180254616Y-67081837D01*
X180488258Y-66828176D01*
X180638262Y-66653297D01*
X180675088Y-66604021D01*
X180817594Y-66359284D01*
X180908294Y-66131152D01*
X180936973Y-65952045D01*
X180907870Y-65865304D01*
X180900972Y-65818275D01*
X180918446Y-65815335D01*
X180971283Y-65758289D01*
X181009786Y-65625082D01*
X181025945Y-65472613D01*
X181011750Y-65357778D01*
X180986647Y-65330882D01*
X180865852Y-65357937D01*
X180790954Y-65481788D01*
X180777463Y-65668316D01*
X180793495Y-65755817D01*
X180818511Y-65960339D01*
X180759640Y-66088804D01*
X180741769Y-66104760D01*
X180603716Y-66218708D01*
X180535322Y-66276747D01*
X180432701Y-66307675D01*
X180327862Y-66218710D01*
X180216100Y-66004437D01*
X180151288Y-65834933D01*
X180057512Y-65572969D01*
X180022081Y-65475825D01*
X179961524Y-65309788D01*
X179925139Y-65211791D01*
X179820024Y-64895683D01*
X179799845Y-64778358D01*
X180286654Y-64778358D01*
X180325686Y-64918811D01*
X180329332Y-64929744D01*
X180401306Y-65096599D01*
X180479271Y-65140086D01*
X180588729Y-65069801D01*
X180620328Y-65039263D01*
X180683644Y-64920530D01*
X180645248Y-64842449D01*
X180510366Y-64762161D01*
X180407474Y-64732929D01*
X180309416Y-64727733D01*
X180286654Y-64778358D01*
X179799845Y-64778358D01*
X179780715Y-64667132D01*
X179805914Y-64497257D01*
X179887160Y-64365389D01*
X180082195Y-64181822D01*
X180244112Y-64121527D01*
X180351477Y-64168560D01*
X180460198Y-64236276D01*
X180510690Y-64241014D01*
X180606670Y-64266088D01*
X180754958Y-64349092D01*
X180790009Y-64373121D01*
X180995908Y-64506492D01*
X181128715Y-64548280D01*
X181215042Y-64497017D01*
X181281500Y-64351231D01*
X181283303Y-64345865D01*
X181383860Y-64143956D01*
X181496772Y-64063786D01*
X181605663Y-64095813D01*
X181694164Y-64230490D01*
X181745903Y-64458273D01*
X181752759Y-64619551D01*
X181764935Y-64898445D01*
X181808856Y-65050446D01*
X181883407Y-65074121D01*
X181987472Y-64968039D01*
X182004472Y-64942537D01*
X182129637Y-64757253D01*
X182273131Y-64556330D01*
X182286801Y-64537863D01*
X182446061Y-64279860D01*
X182596785Y-63962214D01*
X182713809Y-63643616D01*
X182768061Y-63415393D01*
X182759812Y-63230885D01*
X182696268Y-63092334D01*
X182694568Y-63090602D01*
X182573763Y-63035762D01*
X182369376Y-62999454D01*
X182127888Y-62983442D01*
X181895781Y-62989487D01*
X181719537Y-63019352D01*
X181658001Y-63051298D01*
X181569025Y-63089132D01*
X181538944Y-63075327D01*
X181456829Y-63066818D01*
X181438829Y-63080413D01*
X181353461Y-63128109D01*
X181177720Y-63204611D01*
X180948021Y-63294168D01*
X180924721Y-63302781D01*
X180676129Y-63394262D01*
X180461971Y-63473136D01*
X180327280Y-63522815D01*
X180324463Y-63523857D01*
X180160805Y-63592300D01*
X179903800Y-63709160D01*
X179579804Y-63861766D01*
X179215177Y-64037444D01*
X178836273Y-64223524D01*
X178469454Y-64407334D01*
X178206666Y-64542022D01*
X177920671Y-64688086D01*
X177668780Y-64812365D01*
X177480485Y-64900579D01*
X177391223Y-64936913D01*
X177232571Y-65017410D01*
X177171050Y-65067490D01*
X177064673Y-65138265D01*
X177014439Y-65145313D01*
X176927263Y-65170399D01*
X176766655Y-65250827D01*
X176611665Y-65342080D01*
X176415959Y-65458659D01*
X176259728Y-65541543D01*
X176192130Y-65568420D01*
X176080263Y-65612090D01*
X175935110Y-65691517D01*
X175722866Y-65805140D01*
X175525275Y-65882841D01*
X175365447Y-65920815D01*
X175266494Y-65915252D01*
X175251525Y-65862346D01*
X175302806Y-65795688D01*
X175406999Y-65716026D01*
X175614250Y-65578409D01*
X175910749Y-65391229D01*
X176282681Y-65162882D01*
X176716235Y-64901762D01*
X177197599Y-64616259D01*
X177712960Y-64314772D01*
X178243424Y-64008607D01*
X178495849Y-63863628D01*
X178738794Y-63723617D01*
X178906603Y-63626463D01*
X179368998Y-63364198D01*
X179830362Y-63114592D01*
X180264897Y-62890791D01*
X180646803Y-62705938D01*
X180950279Y-62573179D01*
X181043118Y-62537896D01*
X181223098Y-62467583D01*
X181345054Y-62408292D01*
X181365371Y-62393638D01*
X181451331Y-62361283D01*
X181630791Y-62321909D01*
X181849253Y-62286381D01*
X182274669Y-62265749D01*
X182610925Y-62340397D01*
X182869629Y-62516688D01*
X183062393Y-62800986D01*
X183140602Y-62994135D01*
X183191688Y-63219903D01*
X183187887Y-63459088D01*
X183123124Y-63726535D01*
X182991326Y-64037090D01*
X182786417Y-64405596D01*
X182502325Y-64846899D01*
X182210436Y-65267286D01*
X182053284Y-65484575D01*
X181914972Y-65668897D01*
X181823109Y-65783541D01*
X181817351Y-65789967D01*
X181751624Y-65919056D01*
X181699936Y-66119928D01*
X181687157Y-66209884D01*
X181658235Y-66474483D01*
X181624294Y-66772186D01*
X181611447Y-66881419D01*
X181583964Y-67116190D01*
X181561267Y-67317026D01*
X181553357Y-67390898D01*
X181522086Y-67531275D01*
X181490886Y-67589756D01*
X181473987Y-67664373D01*
X181481184Y-67673998D01*
X181492056Y-67758245D01*
X181467260Y-67911068D01*
X181465182Y-67919325D01*
X181421731Y-68139963D01*
X181393766Y-68367589D01*
X181342809Y-68656016D01*
X181235193Y-69022320D01*
X181085026Y-69430125D01*
X180906411Y-69843054D01*
X180713454Y-70224732D01*
X180596379Y-70424058D01*
X180529916Y-70557587D01*
X180555692Y-70621475D01*
X180687104Y-70626000D01*
X180829730Y-70603079D01*
X181084561Y-70570440D01*
X181349297Y-70558513D01*
X181369469Y-70558806D01*
X181548384Y-70572345D01*
X181631847Y-70615796D01*
X181658145Y-70705885D01*
X181651694Y-70769201D01*
X181612491Y-70848372D01*
X181527595Y-70958379D01*
X181384067Y-71114202D01*
X181168966Y-71330823D01*
X180869353Y-71623223D01*
X180847689Y-71644199D01*
X180570067Y-71917128D01*
X180323787Y-72167184D01*
X180126605Y-72375711D01*
X179996279Y-72524051D01*
X179953593Y-72583552D01*
X179860626Y-72688081D01*
X179697969Y-72718080D01*
X179659713Y-72717303D01*
X179465772Y-72742611D01*
X179229885Y-72816413D01*
X179122729Y-72863501D01*
X178654485Y-73057420D01*
X178245365Y-73150410D01*
X178177816Y-73156091D01*
X178071438Y-73168313D01*
X177971409Y-73201153D01*
X177856547Y-73269257D01*
X177705671Y-73387269D01*
X177497601Y-73569834D01*
X177242366Y-73802878D01*
X177009537Y-74008426D01*
X176797786Y-74179976D01*
X176635175Y-74295603D01*
X176565637Y-74331523D01*
X176454241Y-74398798D01*
X176270926Y-74547684D01*
X176035269Y-74761359D01*
X175803990Y-74985794D01*
X175441672Y-75332858D01*
X175154551Y-75575555D01*
X174938085Y-75717699D01*
X174924521Y-75724437D01*
X174686624Y-75867855D01*
X174578152Y-76014561D01*
X174594700Y-76180075D01*
X174731858Y-76379916D01*
X174736772Y-76385461D01*
X174898347Y-76630058D01*
X174960579Y-76872852D01*
X174918944Y-77084180D01*
X174856474Y-77170071D01*
X174629900Y-77315985D01*
X174335400Y-77396382D01*
X174029439Y-77396605D01*
X174001726Y-77391905D01*
X173855415Y-77355596D01*
X173726593Y-77294193D01*
X173584176Y-77186287D01*
X173397082Y-77010470D01*
X173284421Y-76897828D01*
X173033578Y-76616209D01*
X172799117Y-76302005D01*
X172681038Y-76114237D01*
X172600938Y-75986865D01*
X172458940Y-75702437D01*
G37*
G36*
X172339617Y-72008592D02*
G01*
X172240863Y-71849180D01*
X172179014Y-71633776D01*
X172174769Y-71613477D01*
X172154109Y-71285756D01*
X172207724Y-70941489D01*
X172210843Y-70930572D01*
X173095032Y-70930572D01*
X173129091Y-71139815D01*
X173136677Y-71162614D01*
X173285640Y-71413324D01*
X173501140Y-71569141D01*
X173755013Y-71630530D01*
X174019093Y-71597953D01*
X174265217Y-71471875D01*
X174465220Y-71252759D01*
X174525741Y-71139742D01*
X174572470Y-70962529D01*
X174590251Y-70744215D01*
X174589762Y-70719362D01*
X174562387Y-70527317D01*
X174474197Y-70378041D01*
X174355474Y-70261950D01*
X174188920Y-70136537D01*
X174040135Y-70095677D01*
X173859889Y-70116089D01*
X173577801Y-70230401D01*
X173322123Y-70436445D01*
X173140786Y-70693297D01*
X173116214Y-70750991D01*
X173095032Y-70930572D01*
X172210843Y-70930572D01*
X172213640Y-70920785D01*
X172263457Y-70763453D01*
X172318805Y-70637726D01*
X172399351Y-70518063D01*
X172524763Y-70378917D01*
X172714706Y-70194744D01*
X172919020Y-70004593D01*
X173178743Y-69767231D01*
X173368921Y-69604966D01*
X173516811Y-69499676D01*
X173649675Y-69433238D01*
X173794770Y-69387530D01*
X173877330Y-69367502D01*
X174259548Y-69310138D01*
X174570712Y-69340677D01*
X174846164Y-69464920D01*
X174957689Y-69544847D01*
X175239976Y-69839324D01*
X175397714Y-70172891D01*
X175431691Y-70536132D01*
X175342694Y-70919631D01*
X175131505Y-71313973D01*
X174798911Y-71709741D01*
X174775127Y-71733314D01*
X174551944Y-71935066D01*
X174315612Y-72121970D01*
X174140510Y-72239196D01*
X173740964Y-72405742D01*
X173332858Y-72461010D01*
X172943234Y-72406056D01*
X172599139Y-72241934D01*
X172519055Y-72179909D01*
X172513712Y-72175771D01*
X172339617Y-72008592D01*
G37*
%TO.C,M78AR05-2*%
X123070000Y-80410000D02*
X114450000Y-80410000D01*
X115450000Y-68449000D02*
X114210000Y-68449000D01*
X123070000Y-68689000D02*
X114450000Y-68689000D01*
X114450000Y-68689000D02*
X114450000Y-80410000D01*
X123070000Y-68689000D02*
X123070000Y-80410000D01*
X114210000Y-68449000D02*
X114210000Y-69689000D01*
%TO.C,1PPS1*%
X179715000Y-58535000D02*
X179715000Y-58691000D01*
X179715000Y-56219000D02*
X179715000Y-56375000D01*
X179715000Y-58690516D02*
G75*
G03*
X182947335Y-58533608I1560000J1235516D01*
G01*
X180234039Y-58535000D02*
G75*
G03*
X182316130Y-58534837I1040961J1080000D01*
G01*
X182947335Y-56376392D02*
G75*
G03*
X179715000Y-56219484I-1672335J-1078608D01*
G01*
X182316130Y-56375163D02*
G75*
G03*
X180234039Y-56375000I-1041130J-1079837D01*
G01*
%TO.C,ICS-UART1*%
X106960000Y-56530000D02*
X101460000Y-56530000D01*
X101460000Y-64530000D02*
X106960000Y-64530000D01*
X101460000Y-57030000D02*
X106960000Y-57030000D01*
X100850000Y-51720000D02*
X112570000Y-51720000D01*
X112570000Y-53140000D02*
X108070000Y-53140000D01*
X100850000Y-59280000D02*
X100850000Y-51720000D01*
X108070000Y-53140000D02*
X108070000Y-59280000D01*
X106960000Y-59030000D02*
X101460000Y-59030000D01*
X106960000Y-62030000D02*
X106960000Y-61530000D01*
X106960000Y-54030000D02*
X101460000Y-54030000D01*
X101460000Y-64030000D02*
X101460000Y-64530000D01*
X106960000Y-54530000D02*
X106960000Y-54030000D01*
X111660000Y-54280000D02*
X112260000Y-53980000D01*
X106960000Y-61530000D02*
X101460000Y-61530000D01*
X112260000Y-53980000D02*
X112260000Y-54580000D01*
X106960000Y-64530000D02*
X106960000Y-64030000D01*
X101460000Y-61530000D02*
X101460000Y-62030000D01*
X112570000Y-51720000D02*
X112570000Y-53140000D01*
X100850000Y-66840000D02*
X112570000Y-66840000D01*
X106960000Y-57030000D02*
X106960000Y-56530000D01*
X112570000Y-65420000D02*
X108070000Y-65420000D01*
X101460000Y-62030000D02*
X106960000Y-62030000D01*
X106960000Y-64030000D02*
X101460000Y-64030000D01*
X108070000Y-65420000D02*
X108070000Y-59280000D01*
X101460000Y-59030000D02*
X101460000Y-59530000D01*
X112570000Y-66840000D02*
X112570000Y-65420000D01*
X100850000Y-59280000D02*
X100850000Y-66840000D01*
X101460000Y-59530000D02*
X106960000Y-59530000D01*
X101460000Y-56530000D02*
X101460000Y-57030000D01*
X106960000Y-59530000D02*
X106960000Y-59030000D01*
X112260000Y-54580000D02*
X111660000Y-54280000D01*
X101460000Y-54030000D02*
X101460000Y-54530000D01*
X101460000Y-54530000D02*
X106960000Y-54530000D01*
%TO.C,R2*%
X125750000Y-54900000D02*
X125750000Y-58740000D01*
X126670000Y-53950000D02*
X126670000Y-54900000D01*
X126670000Y-59690000D02*
X126670000Y-58740000D01*
X125750000Y-58740000D02*
X127590000Y-58740000D01*
X127590000Y-54900000D02*
X125750000Y-54900000D01*
X127590000Y-58740000D02*
X127590000Y-54900000D01*
%TO.C,Under-UART1*%
X106960000Y-71040000D02*
X106960000Y-70540000D01*
X106960000Y-75540000D02*
X101460000Y-75540000D01*
X101460000Y-73040000D02*
X101460000Y-73540000D01*
X100850000Y-74540000D02*
X100850000Y-68230000D01*
X101460000Y-73540000D02*
X106960000Y-73540000D01*
X108070000Y-79430000D02*
X108070000Y-74540000D01*
X106960000Y-73540000D02*
X106960000Y-73040000D01*
X112260000Y-70490000D02*
X112260000Y-71090000D01*
X106960000Y-78040000D02*
X101460000Y-78040000D01*
X101460000Y-76040000D02*
X106960000Y-76040000D01*
X101460000Y-78040000D02*
X101460000Y-78540000D01*
X101460000Y-75540000D02*
X101460000Y-76040000D01*
X112570000Y-79430000D02*
X108070000Y-79430000D01*
X108070000Y-69650000D02*
X108070000Y-74540000D01*
X112570000Y-69650000D02*
X108070000Y-69650000D01*
X101460000Y-78540000D02*
X106960000Y-78540000D01*
X106960000Y-73040000D02*
X101460000Y-73040000D01*
X100850000Y-68230000D02*
X112570000Y-68230000D01*
X106960000Y-78540000D02*
X106960000Y-78040000D01*
X101460000Y-71040000D02*
X106960000Y-71040000D01*
X101460000Y-70540000D02*
X101460000Y-71040000D01*
X100850000Y-80850000D02*
X112570000Y-80850000D01*
X112570000Y-80850000D02*
X112570000Y-79430000D01*
X111660000Y-70790000D02*
X112260000Y-70490000D01*
X106960000Y-76040000D02*
X106960000Y-75540000D01*
X100850000Y-74540000D02*
X100850000Y-80850000D01*
X112260000Y-71090000D02*
X111660000Y-70790000D01*
X112570000Y-68230000D02*
X112570000Y-69650000D01*
X106960000Y-70540000D02*
X101460000Y-70540000D01*
D13*
%TO.C,AE-MICRO-SD-DIP1*%
X193980000Y-99875000D02*
X168580000Y-99875000D01*
X168580000Y-99875000D02*
X168580000Y-80315000D01*
X168580000Y-80315000D02*
X193980000Y-80315000D01*
X193980000Y-80315000D02*
X193980000Y-99875000D01*
D12*
%TO.C,ICS-board1*%
X131790000Y-75990000D02*
X134330000Y-75990000D01*
X134330000Y-75990000D02*
X134330000Y-83610000D01*
X134330000Y-83610000D02*
X131790000Y-83610000D01*
X131790000Y-83610000D02*
X131790000Y-75990000D01*
X144490000Y-75380000D02*
X123990000Y-75380000D01*
X123990000Y-75380000D02*
X123990000Y-94380000D01*
X123990000Y-94380000D02*
X144490000Y-94380000D01*
X144490000Y-94380000D02*
X144490000Y-75380000D01*
X144490000Y-75990000D02*
X134330000Y-75990000D01*
X134330000Y-75990000D02*
X134330000Y-78530000D01*
X134330000Y-78530000D02*
X144490000Y-78530000D01*
X144490000Y-78530000D02*
X144490000Y-75990000D01*
X124170000Y-81070000D02*
X129250000Y-81070000D01*
X129250000Y-81070000D02*
X129250000Y-78530000D01*
X129250000Y-78530000D02*
X124170000Y-78530000D01*
X124170000Y-78530000D02*
X124170000Y-81070000D01*
X129250000Y-75990000D02*
X131790000Y-75990000D01*
X131790000Y-75990000D02*
X131790000Y-83610000D01*
X131790000Y-83610000D02*
X129250000Y-83610000D01*
X129250000Y-83610000D02*
X129250000Y-75990000D01*
X144490000Y-91230000D02*
X134330000Y-91230000D01*
X134330000Y-91230000D02*
X134330000Y-93770000D01*
X134330000Y-93770000D02*
X144490000Y-93770000D01*
X144490000Y-93770000D02*
X144490000Y-91230000D01*
%TO.C,Air-UART1*%
X106960000Y-85010000D02*
X106960000Y-84510000D01*
X112260000Y-84460000D02*
X112260000Y-85060000D01*
X106960000Y-90010000D02*
X106960000Y-89510000D01*
X101460000Y-89510000D02*
X101460000Y-90010000D01*
X100850000Y-94820000D02*
X112570000Y-94820000D01*
X106960000Y-92510000D02*
X106960000Y-92010000D01*
X106960000Y-92010000D02*
X101460000Y-92010000D01*
X106960000Y-87510000D02*
X106960000Y-87010000D01*
X101460000Y-84510000D02*
X101460000Y-85010000D01*
X101460000Y-92510000D02*
X106960000Y-92510000D01*
X106960000Y-89510000D02*
X101460000Y-89510000D01*
X100850000Y-88510000D02*
X100850000Y-82200000D01*
X112570000Y-82200000D02*
X112570000Y-83620000D01*
X108070000Y-83620000D02*
X108070000Y-88510000D01*
X112570000Y-83620000D02*
X108070000Y-83620000D01*
X111660000Y-84760000D02*
X112260000Y-84460000D01*
X101460000Y-85010000D02*
X106960000Y-85010000D01*
X106960000Y-84510000D02*
X101460000Y-84510000D01*
X112570000Y-93400000D02*
X108070000Y-93400000D01*
X101460000Y-87010000D02*
X101460000Y-87510000D01*
X100850000Y-88510000D02*
X100850000Y-94820000D01*
X101460000Y-90010000D02*
X106960000Y-90010000D01*
X108070000Y-93400000D02*
X108070000Y-88510000D01*
X100850000Y-82200000D02*
X112570000Y-82200000D01*
X106960000Y-87010000D02*
X101460000Y-87010000D01*
X112260000Y-85060000D02*
X111660000Y-84760000D01*
X101460000Y-92010000D02*
X101460000Y-92510000D01*
X101460000Y-87510000D02*
X106960000Y-87510000D01*
X112570000Y-94820000D02*
X112570000Y-93400000D01*
%TO.C,R1*%
X131400000Y-58740000D02*
X131400000Y-54900000D01*
X129560000Y-58740000D02*
X131400000Y-58740000D01*
X130480000Y-53950000D02*
X130480000Y-54900000D01*
X131400000Y-54900000D02*
X129560000Y-54900000D01*
X129560000Y-54900000D02*
X129560000Y-58740000D01*
X130480000Y-59690000D02*
X130480000Y-58740000D01*
%TO.C,Y1*%
X175360000Y-55530000D02*
X175360000Y-58030000D01*
X171960000Y-55530000D02*
X171960000Y-58030000D01*
X171960000Y-58030000D02*
G75*
G03*
X172611039Y-59367790I1700000J0D01*
G01*
X175360000Y-55530000D02*
G75*
G03*
X174708961Y-54192210I-1700000J0D01*
G01*
X172611039Y-54192210D02*
G75*
G03*
X171960000Y-55530000I1048961J-1337790D01*
G01*
X174708961Y-59367790D02*
G75*
G03*
X175360000Y-58030000I-1048961J1337790D01*
G01*
%TO.C,Speaker1*%
X198570000Y-61880000D02*
X186850000Y-61880000D01*
X192460000Y-56570000D02*
X192460000Y-57070000D01*
X197960000Y-54070000D02*
X192460000Y-54070000D01*
X197960000Y-59570000D02*
X197960000Y-59070000D01*
X197960000Y-54570000D02*
X197960000Y-54070000D01*
X186850000Y-60460000D02*
X191350000Y-60460000D01*
X186850000Y-53180000D02*
X191350000Y-53180000D01*
X198570000Y-56820000D02*
X198570000Y-51760000D01*
X198570000Y-51760000D02*
X186850000Y-51760000D01*
X192460000Y-59570000D02*
X197960000Y-59570000D01*
X197960000Y-59070000D02*
X192460000Y-59070000D01*
X187160000Y-59620000D02*
X187160000Y-59020000D01*
X192460000Y-57070000D02*
X197960000Y-57070000D01*
X192460000Y-54570000D02*
X197960000Y-54570000D01*
X198570000Y-56820000D02*
X198570000Y-61880000D01*
X197960000Y-57070000D02*
X197960000Y-56570000D01*
X187760000Y-59320000D02*
X187160000Y-59620000D01*
X186850000Y-51760000D02*
X186850000Y-53180000D01*
X187160000Y-59020000D02*
X187760000Y-59320000D01*
X192460000Y-54070000D02*
X192460000Y-54570000D01*
X192460000Y-59070000D02*
X192460000Y-59570000D01*
X197960000Y-56570000D02*
X192460000Y-56570000D01*
X191350000Y-53180000D02*
X191350000Y-56820000D01*
X191350000Y-60460000D02*
X191350000Y-56820000D01*
X186850000Y-61880000D02*
X186850000Y-60460000D01*
%TO.C,M78AR05-3*%
X123070000Y-82659000D02*
X123070000Y-94380000D01*
X123070000Y-82659000D02*
X114450000Y-82659000D01*
X115450000Y-82419000D02*
X114210000Y-82419000D01*
X114450000Y-82659000D02*
X114450000Y-94380000D01*
X123070000Y-94380000D02*
X114450000Y-94380000D01*
X114210000Y-82419000D02*
X114210000Y-83659000D01*
%TO.C,DPS310*%
X145880000Y-62320000D02*
X165882073Y-62320000D01*
X165882073Y-62320000D02*
X165882073Y-102270000D01*
X165882073Y-102270000D02*
X145880000Y-102270000D01*
X145880000Y-102270000D02*
X145880000Y-62320000D01*
%TO.C,M78AR05-1*%
X123070000Y-52179000D02*
X123070000Y-63900000D01*
X123070000Y-63900000D02*
X114450000Y-63900000D01*
X115450000Y-51939000D02*
X114210000Y-51939000D01*
X114450000Y-52179000D02*
X114450000Y-63900000D01*
X123070000Y-52179000D02*
X114450000Y-52179000D01*
X114210000Y-51939000D02*
X114210000Y-53179000D01*
%TO.C,AE-BNO55*%
X127305000Y-68853250D02*
X128956000Y-68853250D01*
X128956000Y-68853250D02*
X128956000Y-70440750D01*
X128956000Y-70440750D02*
X127305000Y-70440750D01*
X127305000Y-70440750D02*
X127305000Y-68853250D01*
X143290000Y-62750000D02*
X125290000Y-62750000D01*
X125290000Y-62750000D02*
X125290000Y-73750000D01*
X125290000Y-73750000D02*
X143290000Y-73750000D01*
X143290000Y-73750000D02*
X143290000Y-62750000D01*
X136195000Y-65837000D02*
X132385000Y-65837000D01*
X132385000Y-65837000D02*
X132385000Y-70536000D01*
X132385000Y-70536000D02*
X136195000Y-70536000D01*
X136195000Y-70536000D02*
X136195000Y-65837000D01*
X139624000Y-67234000D02*
X142545000Y-67234000D01*
X142545000Y-67234000D02*
X142545000Y-69393000D01*
X142545000Y-69393000D02*
X139624000Y-69393000D01*
X139624000Y-69393000D02*
X139624000Y-67234000D01*
X126162000Y-71806000D02*
X128321000Y-71806000D01*
X128321000Y-71806000D02*
X128321000Y-72949000D01*
X128321000Y-72949000D02*
X126162000Y-72949000D01*
X126162000Y-72949000D02*
X126162000Y-71806000D01*
X140513000Y-64186000D02*
X141783000Y-64186000D01*
X141783000Y-64186000D02*
X141783000Y-64821000D01*
X141783000Y-64821000D02*
X140513000Y-64821000D01*
X140513000Y-64821000D02*
X140513000Y-64186000D01*
X138227000Y-67234000D02*
X137084000Y-67234000D01*
X137084000Y-67234000D02*
X137084000Y-70028000D01*
X137084000Y-70028000D02*
X138227000Y-70028000D01*
X138227000Y-70028000D02*
X138227000Y-67234000D01*
%TO.C,Air1*%
X107330000Y-98540000D02*
X107330000Y-98696000D01*
X107330000Y-96224000D02*
X107330000Y-96380000D01*
X109931130Y-96380163D02*
G75*
G03*
X107849039Y-96380000I-1041130J-1079837D01*
G01*
X107330000Y-98695516D02*
G75*
G03*
X110562335Y-98538608I1560000J1235516D01*
G01*
X107849039Y-98540000D02*
G75*
G03*
X109931130Y-98539837I1040961J1080000D01*
G01*
X110562335Y-96381392D02*
G75*
G03*
X107330000Y-96224484I-1672335J-1078608D01*
G01*
%TO.C,ICS1*%
X107325000Y-47837000D02*
X107325000Y-47993000D01*
X107325000Y-50153000D02*
X107325000Y-50309000D01*
X107844039Y-50153000D02*
G75*
G03*
X109926130Y-50152837I1040961J1080000D01*
G01*
X110557335Y-47994392D02*
G75*
G03*
X107325000Y-47837484I-1672335J-1078608D01*
G01*
X107325000Y-50308516D02*
G75*
G03*
X110557335Y-50151608I1560000J1235516D01*
G01*
X109926130Y-47993163D02*
G75*
G03*
X107844039Y-47993000I-1041130J-1079837D01*
G01*
%TD*%
M02*
