%TF.GenerationSoftware,KiCad,Pcbnew,(6.0.7)*%
%TF.CreationDate,2023-03-01T01:07:27+09:00*%
%TF.ProjectId,PCB_Main,5043425f-4d61-4696-9e2e-6b696361645f,rev?*%
%TF.SameCoordinates,Original*%
%TF.FileFunction,Soldermask,Top*%
%TF.FilePolarity,Negative*%
%FSLAX46Y46*%
G04 Gerber Fmt 4.6, Leading zero omitted, Abs format (unit mm)*
G04 Created by KiCad (PCBNEW (6.0.7)) date 2023-03-01 01:07:27*
%MOMM*%
%LPD*%
G01*
G04 APERTURE LIST*
G04 Aperture macros list*
%AMRoundRect*
0 Rectangle with rounded corners*
0 $1 Rounding radius*
0 $2 $3 $4 $5 $6 $7 $8 $9 X,Y pos of 4 corners*
0 Add a 4 corners polygon primitive as box body*
4,1,4,$2,$3,$4,$5,$6,$7,$8,$9,$2,$3,0*
0 Add four circle primitives for the rounded corners*
1,1,$1+$1,$2,$3*
1,1,$1+$1,$4,$5*
1,1,$1+$1,$6,$7*
1,1,$1+$1,$8,$9*
0 Add four rect primitives between the rounded corners*
20,1,$1+$1,$2,$3,$4,$5,0*
20,1,$1+$1,$4,$5,$6,$7,0*
20,1,$1+$1,$6,$7,$8,$9,0*
20,1,$1+$1,$8,$9,$2,$3,0*%
G04 Aperture macros list end*
%ADD10R,1.800000X1.800000*%
%ADD11C,1.800000*%
%ADD12RoundRect,0.250000X0.725000X-0.600000X0.725000X0.600000X-0.725000X0.600000X-0.725000X-0.600000X0*%
%ADD13O,1.950000X1.700000*%
%ADD14C,3.200000*%
%ADD15R,1.600000X1.600000*%
%ADD16O,1.600000X1.600000*%
%ADD17R,2.300000X1.500000*%
%ADD18O,2.300000X1.500000*%
%ADD19RoundRect,0.250000X-0.725000X0.600000X-0.725000X-0.600000X0.725000X-0.600000X0.725000X0.600000X0*%
%ADD20C,1.400000*%
%ADD21O,1.400000X1.400000*%
%ADD22C,2.000000*%
%ADD23C,1.600000*%
%ADD24C,1.700000*%
%ADD25R,1.700000X1.700000*%
%ADD26O,1.700000X1.700000*%
G04 APERTURE END LIST*
D10*
%TO.C,Under1*%
X120955000Y-67620000D03*
D11*
X120955000Y-65080000D03*
%TD*%
D12*
%TO.C,GPS-UART1*%
X189260000Y-75790000D03*
D13*
X189260000Y-73290000D03*
X189260000Y-70790000D03*
X189260000Y-68290000D03*
X189260000Y-65790000D03*
%TD*%
D10*
%TO.C,Power1*%
X124770000Y-97460000D03*
D11*
X122230000Y-97460000D03*
%TD*%
D10*
%TO.C,SD1*%
X199065000Y-89840000D03*
D11*
X196525000Y-89840000D03*
%TD*%
D14*
%TO.C,MH6*%
X196520000Y-97460000D03*
%TD*%
D15*
%TO.C,ATP3012*%
X135570000Y-60620000D03*
D16*
X138110000Y-60620000D03*
X140650000Y-60620000D03*
X143190000Y-60620000D03*
X145730000Y-60620000D03*
X148270000Y-60620000D03*
X150810000Y-60620000D03*
X153350000Y-60620000D03*
X155890000Y-60620000D03*
X158430000Y-60620000D03*
X160970000Y-60620000D03*
X163510000Y-60620000D03*
X166050000Y-60620000D03*
X168590000Y-60620000D03*
X168590000Y-53000000D03*
X166050000Y-53000000D03*
X163510000Y-53000000D03*
X160970000Y-53000000D03*
X158430000Y-53000000D03*
X155890000Y-53000000D03*
X153350000Y-53000000D03*
X150810000Y-53000000D03*
X148270000Y-53000000D03*
X145730000Y-53000000D03*
X143190000Y-53000000D03*
X140650000Y-53000000D03*
X138110000Y-53000000D03*
X135570000Y-53000000D03*
%TD*%
D17*
%TO.C,M78AR05-2*%
X116510000Y-72060000D03*
D18*
X116510000Y-74600000D03*
X116510000Y-77140000D03*
%TD*%
D10*
%TO.C,1PPS1*%
X180005000Y-57455000D03*
D11*
X182545000Y-57455000D03*
%TD*%
D19*
%TO.C,ICS-UART1*%
X110160000Y-54280000D03*
D13*
X110160000Y-56780000D03*
X110160000Y-59280000D03*
X110160000Y-61780000D03*
X110160000Y-64280000D03*
%TD*%
D20*
%TO.C,R2*%
X126670000Y-60630000D03*
D21*
X126670000Y-53010000D03*
%TD*%
D19*
%TO.C,Under-UART1*%
X110160000Y-70790000D03*
D13*
X110160000Y-73290000D03*
X110160000Y-75790000D03*
X110160000Y-78290000D03*
%TD*%
D20*
%TO.C,AE-MICRO-SD-DIP1*%
X192710000Y-81585000D03*
X190170000Y-81585000D03*
X187630000Y-81585000D03*
X185090000Y-81585000D03*
X182550000Y-81585000D03*
X180010000Y-81585000D03*
X177470000Y-81585000D03*
X174930000Y-81585000D03*
X172390000Y-81585000D03*
X169850000Y-81585000D03*
X172390000Y-94285000D03*
X190170000Y-94285000D03*
%TD*%
D14*
%TO.C,MH1*%
X115240000Y-49200000D03*
%TD*%
D22*
%TO.C,ICS-board1*%
X143220000Y-77260000D03*
X140680000Y-77260000D03*
X138140000Y-77260000D03*
X135600000Y-77260000D03*
X135600000Y-92500000D03*
X138140000Y-92500000D03*
D23*
X140680000Y-92500000D03*
X143220000Y-92500000D03*
D22*
X133060000Y-77260000D03*
X133060000Y-79800000D03*
X133060000Y-82340000D03*
X130520000Y-77260000D03*
X130520000Y-79800000D03*
X130520000Y-82340000D03*
X127980000Y-79800000D03*
X125440000Y-79800000D03*
%TD*%
D19*
%TO.C,Air-UART1*%
X110160000Y-84760000D03*
D13*
X110160000Y-87260000D03*
X110160000Y-89760000D03*
X110160000Y-92260000D03*
%TD*%
D20*
%TO.C,R1*%
X130480000Y-53010000D03*
D21*
X130480000Y-60630000D03*
%TD*%
D24*
%TO.C,Y1*%
X173660000Y-54280000D03*
X173660000Y-56780000D03*
X173660000Y-59280000D03*
%TD*%
D12*
%TO.C,Speaker1*%
X189260000Y-59320000D03*
D13*
X189260000Y-56820000D03*
X189260000Y-54320000D03*
%TD*%
D17*
%TO.C,M78AR05-3*%
X116510000Y-86030000D03*
D18*
X116510000Y-88570000D03*
X116510000Y-91110000D03*
%TD*%
D23*
%TO.C,DPS310*%
X149530000Y-65710000D03*
X152070000Y-65710000D03*
X154610000Y-65710000D03*
X157150000Y-65710000D03*
X159690000Y-65710000D03*
X162230000Y-65710000D03*
%TD*%
D17*
%TO.C,M78AR05-1*%
X116510000Y-55550000D03*
D18*
X116510000Y-58090000D03*
X116510000Y-60630000D03*
%TD*%
D14*
%TO.C,MH2*%
X113970000Y-97460000D03*
%TD*%
D22*
%TO.C,AE-BNO55*%
X138100000Y-64440000D03*
X135560000Y-64440000D03*
X133020000Y-64440000D03*
X130480000Y-64440000D03*
X130480000Y-72060000D03*
X133020000Y-72060000D03*
X135560000Y-72060000D03*
X138100000Y-72060000D03*
%TD*%
D14*
%TO.C,MH3*%
X166040000Y-64440000D03*
%TD*%
%TO.C,MH4*%
X166040000Y-92380000D03*
%TD*%
D10*
%TO.C,Air1*%
X107620000Y-97460000D03*
D11*
X110160000Y-97460000D03*
%TD*%
D14*
%TO.C,MH5*%
X190170000Y-49200000D03*
%TD*%
D10*
%TO.C,ICS1*%
X107615000Y-49073000D03*
D11*
X110155000Y-49073000D03*
%TD*%
D25*
%TO.C,J1*%
X127940000Y-97460000D03*
D26*
X130480000Y-97460000D03*
X133020000Y-97460000D03*
X135560000Y-97460000D03*
X138100000Y-97460000D03*
X140640000Y-97460000D03*
X143180000Y-97460000D03*
X145720000Y-97460000D03*
%TD*%
D25*
%TO.C,J3*%
X150800000Y-97460000D03*
D26*
X153340000Y-97460000D03*
X155880000Y-97460000D03*
X158420000Y-97460000D03*
X160960000Y-97460000D03*
X163500000Y-97460000D03*
X166040000Y-97460000D03*
X168580000Y-97460000D03*
%TD*%
D25*
%TO.C,J5*%
X173660000Y-97460000D03*
D26*
X176200000Y-97460000D03*
X178740000Y-97460000D03*
X181280000Y-97460000D03*
X183820000Y-97460000D03*
X186360000Y-97460000D03*
X188900000Y-97460000D03*
X191440000Y-97460000D03*
%TD*%
D25*
%TO.C,J2*%
X118796000Y-49200000D03*
D26*
X121336000Y-49200000D03*
X123876000Y-49200000D03*
X126416000Y-49200000D03*
X128956000Y-49200000D03*
X131496000Y-49200000D03*
X134036000Y-49200000D03*
X136576000Y-49200000D03*
X139116000Y-49200000D03*
X141656000Y-49200000D03*
%TD*%
D25*
%TO.C,J4*%
X145720000Y-49200000D03*
D26*
X148260000Y-49200000D03*
X150800000Y-49200000D03*
X153340000Y-49200000D03*
X155880000Y-49200000D03*
X158420000Y-49200000D03*
X160960000Y-49200000D03*
X163500000Y-49200000D03*
%TD*%
D25*
%TO.C,J6*%
X168580000Y-49200000D03*
D26*
X171120000Y-49200000D03*
X173660000Y-49200000D03*
X176200000Y-49200000D03*
X178740000Y-49200000D03*
X181280000Y-49200000D03*
X183820000Y-49200000D03*
X186360000Y-49200000D03*
%TD*%
D25*
%TO.C,J7*%
X163500000Y-69520000D03*
D26*
X163500000Y-72060000D03*
X163500000Y-74600000D03*
%TD*%
D25*
%TO.C,J8*%
X166040000Y-74600000D03*
D26*
X166040000Y-72060000D03*
X166040000Y-69520000D03*
%TD*%
M02*
