%TF.GenerationSoftware,KiCad,Pcbnew,(6.0.7)*%
%TF.CreationDate,2023-03-01T01:07:27+09:00*%
%TF.ProjectId,PCB_Main,5043425f-4d61-4696-9e2e-6b696361645f,rev?*%
%TF.SameCoordinates,Original*%
%TF.FileFunction,Legend,Bot*%
%TF.FilePolarity,Positive*%
%FSLAX46Y46*%
G04 Gerber Fmt 4.6, Leading zero omitted, Abs format (unit mm)*
G04 Created by KiCad (PCBNEW (6.0.7)) date 2023-03-01 01:07:27*
%MOMM*%
%LPD*%
G01*
G04 APERTURE LIST*
%ADD10C,0.200000*%
%ADD11C,0.120000*%
G04 APERTURE END LIST*
D10*
X166894285Y-80458928D02*
X166822857Y-80387500D01*
X166680000Y-80316071D01*
X166322857Y-80316071D01*
X166180000Y-80387500D01*
X166108571Y-80458928D01*
X166037142Y-80601785D01*
X166037142Y-80744642D01*
X166108571Y-80958928D01*
X166965714Y-81816071D01*
X166037142Y-81816071D01*
X165537142Y-80316071D02*
X164608571Y-80316071D01*
X165108571Y-80887500D01*
X164894285Y-80887500D01*
X164751428Y-80958928D01*
X164680000Y-81030357D01*
X164608571Y-81173214D01*
X164608571Y-81530357D01*
X164680000Y-81673214D01*
X164751428Y-81744642D01*
X164894285Y-81816071D01*
X165322857Y-81816071D01*
X165465714Y-81744642D01*
X165537142Y-81673214D01*
X163751428Y-80530357D02*
X163751428Y-81816071D01*
X162680000Y-80244642D02*
X162465714Y-80458928D01*
X163537142Y-80173214D02*
X163751428Y-80601785D01*
X164180000Y-80887500D01*
X163537142Y-80816071D02*
X162465714Y-80673214D01*
X163037142Y-80173214D02*
X163037142Y-80673214D01*
X162822857Y-81673214D01*
X162465714Y-81816071D01*
X162322857Y-81530357D01*
X161822857Y-80244642D02*
X160322857Y-80244642D01*
X161751428Y-80673214D02*
X161322857Y-80673214D01*
X160894285Y-80673214D02*
X160394285Y-80673214D01*
X161822857Y-80887500D02*
X161322857Y-80887500D01*
X160894285Y-80887500D02*
X160322857Y-80887500D01*
X161751428Y-81316071D02*
X160322857Y-81316071D01*
X161751428Y-81601785D02*
X160322857Y-81601785D01*
X161037142Y-81816071D02*
X160180000Y-81816071D01*
X161965714Y-80458928D02*
X161965714Y-80744642D01*
X161751428Y-81101785D02*
X161751428Y-81673214D01*
X161108571Y-80244642D02*
X161108571Y-80958928D01*
X161037142Y-81101785D02*
X161037142Y-81816071D01*
X161751428Y-81101785D02*
X160322857Y-81101785D01*
X160322857Y-81601785D01*
X161965714Y-80458928D02*
X160180000Y-80458928D01*
X160180000Y-80744642D01*
X160108571Y-81601785D02*
X160180000Y-81816071D01*
X159037142Y-80458928D02*
X157894285Y-80458928D01*
X158965714Y-80887500D02*
X157965714Y-80887500D01*
X159751428Y-81173214D02*
X157894285Y-81173214D01*
X159180000Y-81387500D02*
X159180000Y-81744642D01*
X159251428Y-80101785D02*
X159251428Y-80958928D01*
X158465714Y-80101785D02*
X158465714Y-80887500D01*
X159608571Y-80244642D02*
X159465714Y-80387500D01*
X158822857Y-81173214D02*
X158465714Y-81601785D01*
X157894285Y-81816071D01*
X158108571Y-81316071D02*
X158537142Y-81530357D01*
X159394285Y-80673214D02*
X159751428Y-80816071D01*
X158822857Y-80958928D02*
X158822857Y-81244642D01*
X159322857Y-81458928D01*
X159751428Y-81530357D01*
X158751428Y-81744642D02*
X159394285Y-81816071D01*
X156394285Y-80244642D02*
X155751428Y-80244642D01*
X157537142Y-80244642D02*
X156965714Y-80244642D01*
X157465714Y-80887500D02*
X156965714Y-80887500D01*
X156322857Y-80958928D02*
X155751428Y-80958928D01*
X156537142Y-81744642D02*
X155680000Y-81744642D01*
X157251428Y-80244642D02*
X157251428Y-81530357D01*
X156822857Y-80316071D02*
X156822857Y-81173214D01*
X156037142Y-80244642D02*
X156037142Y-81744642D01*
X156608571Y-81530357D02*
X156894285Y-81816071D01*
X156894285Y-81458928D02*
X157537142Y-81601785D01*
X156465714Y-80101785D02*
X156465714Y-81101785D01*
X156608571Y-81530357D01*
X154894285Y-80173214D02*
X153680000Y-80173214D01*
X154894285Y-80458928D02*
X153751428Y-80458928D01*
X154894285Y-80744642D02*
X153751428Y-80744642D01*
X155322857Y-81101785D02*
X153465714Y-81101785D01*
X154894285Y-80173214D02*
X154894285Y-81744642D01*
X154465714Y-81244642D02*
X154108571Y-81601785D01*
X153608571Y-81816071D01*
X153608571Y-81173214D02*
X154180000Y-81458928D01*
X154251428Y-81673214D02*
X155180000Y-81816071D01*
X151965714Y-80244642D02*
X150108571Y-80244642D01*
X151251428Y-80744642D02*
X150180000Y-80744642D01*
X151822857Y-80887500D02*
X151394285Y-80887500D01*
X151322857Y-81030357D02*
X150108571Y-81030357D01*
X151822857Y-81244642D02*
X151394285Y-81244642D01*
X151394285Y-80101785D02*
X151394285Y-80458928D01*
X150680000Y-80101785D02*
X150680000Y-80458928D01*
X151108571Y-81316071D02*
X150965714Y-81387500D01*
X150537142Y-80958928D02*
X150180000Y-81244642D01*
X150894285Y-80958928D02*
X151322857Y-81316071D01*
X150394285Y-80530357D02*
X150465714Y-80673214D01*
X150394285Y-81244642D02*
X150537142Y-81387500D01*
X151108571Y-80530357D02*
X151037142Y-80673214D01*
X150608571Y-80744642D02*
X150465714Y-81101785D01*
X150608571Y-81530357D02*
X150180000Y-81673214D01*
X150751428Y-80530357D02*
X151037142Y-81101785D01*
X150822857Y-81601785D02*
X151251428Y-81673214D01*
X151822857Y-80530357D02*
X151394285Y-80530357D01*
X151394285Y-81816071D01*
X151608571Y-81816071D01*
X150751428Y-81173214D02*
X150751428Y-81816071D01*
X150894285Y-81816071D01*
X151822857Y-80530357D02*
X151822857Y-81316071D01*
X151894285Y-81816071D01*
X149751428Y-80958928D02*
X147894285Y-80958928D01*
X149751428Y-81673214D02*
X147894285Y-81673214D01*
X149751428Y-80244642D02*
X149751428Y-81816071D01*
X148822857Y-80244642D02*
X148822857Y-81673214D01*
X149751428Y-80244642D02*
X147894285Y-80244642D01*
X147894285Y-81816071D01*
X147537142Y-80958928D02*
X145680000Y-80958928D01*
X144680000Y-80458928D02*
X144251428Y-80458928D01*
X144108571Y-80530357D02*
X143608571Y-80530357D01*
X145322857Y-80530357D02*
X144751428Y-80530357D01*
X144108571Y-80816071D02*
X143608571Y-80816071D01*
X144751428Y-80958928D02*
X144251428Y-80958928D01*
X143751428Y-81816071D02*
X143465714Y-81816071D01*
X144965714Y-80101785D02*
X144965714Y-81816071D01*
X144108571Y-80173214D02*
X144108571Y-81173214D01*
X143680000Y-81173214D01*
X143751428Y-81816071D01*
X144108571Y-80173214D02*
X143608571Y-80173214D01*
X143608571Y-81173214D01*
X143465714Y-81601785D02*
X143465714Y-81816071D01*
X145037142Y-80673214D02*
X144822857Y-81173214D01*
X144465714Y-80173214D02*
X144465714Y-81173214D01*
X144394285Y-81316071D01*
X144251428Y-81530357D01*
X144965714Y-80458928D02*
X145251428Y-81387500D01*
X143965714Y-81173214D02*
X144108571Y-81673214D01*
X144465714Y-80816071D02*
X144608571Y-81530357D01*
X167037142Y-82731071D02*
X166180000Y-82731071D01*
X166608571Y-84231071D02*
X166608571Y-82731071D01*
X165822857Y-83231071D02*
X165537142Y-84231071D01*
X165251428Y-83516785D01*
X164965714Y-84231071D01*
X164680000Y-83231071D01*
X164108571Y-84231071D02*
X164108571Y-83231071D01*
X164108571Y-82731071D02*
X164180000Y-82802500D01*
X164108571Y-82873928D01*
X164037142Y-82802500D01*
X164108571Y-82731071D01*
X164108571Y-82873928D01*
X163608571Y-83231071D02*
X163037142Y-83231071D01*
X163394285Y-82731071D02*
X163394285Y-84016785D01*
X163322857Y-84159642D01*
X163180000Y-84231071D01*
X163037142Y-84231071D01*
X162751428Y-83231071D02*
X162180000Y-83231071D01*
X162537142Y-82731071D02*
X162537142Y-84016785D01*
X162465714Y-84159642D01*
X162322857Y-84231071D01*
X162180000Y-84231071D01*
X161108571Y-84159642D02*
X161251428Y-84231071D01*
X161537142Y-84231071D01*
X161680000Y-84159642D01*
X161751428Y-84016785D01*
X161751428Y-83445357D01*
X161680000Y-83302500D01*
X161537142Y-83231071D01*
X161251428Y-83231071D01*
X161108571Y-83302500D01*
X161037142Y-83445357D01*
X161037142Y-83588214D01*
X161751428Y-83731071D01*
X160394285Y-84231071D02*
X160394285Y-83231071D01*
X160394285Y-83516785D02*
X160322857Y-83373928D01*
X160251428Y-83302500D01*
X160108571Y-83231071D01*
X159965714Y-83231071D01*
X159465714Y-84088214D02*
X159394285Y-84159642D01*
X159465714Y-84231071D01*
X159537142Y-84159642D01*
X159465714Y-84088214D01*
X159465714Y-84231071D01*
X159465714Y-83302500D02*
X159394285Y-83373928D01*
X159465714Y-83445357D01*
X159537142Y-83373928D01*
X159465714Y-83302500D01*
X159465714Y-83445357D01*
X157822857Y-83516785D02*
X157894285Y-83445357D01*
X158037142Y-83373928D01*
X158180000Y-83373928D01*
X158322857Y-83445357D01*
X158394285Y-83516785D01*
X158465714Y-83659642D01*
X158465714Y-83802500D01*
X158394285Y-83945357D01*
X158322857Y-84016785D01*
X158180000Y-84088214D01*
X158037142Y-84088214D01*
X157894285Y-84016785D01*
X157822857Y-83945357D01*
X157822857Y-83373928D02*
X157822857Y-83945357D01*
X157751428Y-84016785D01*
X157680000Y-84016785D01*
X157537142Y-83945357D01*
X157465714Y-83802500D01*
X157465714Y-83445357D01*
X157608571Y-83231071D01*
X157822857Y-83088214D01*
X158108571Y-83016785D01*
X158394285Y-83088214D01*
X158608571Y-83231071D01*
X158751428Y-83445357D01*
X158822857Y-83731071D01*
X158751428Y-84016785D01*
X158608571Y-84231071D01*
X158394285Y-84373928D01*
X158108571Y-84445357D01*
X157822857Y-84373928D01*
X157608571Y-84231071D01*
X156965714Y-82731071D02*
X155965714Y-82731071D01*
X156608571Y-84231071D01*
X155537142Y-82731071D02*
X154537142Y-82731071D01*
X155180000Y-84231071D01*
X153180000Y-84231071D02*
X154037142Y-84231071D01*
X153608571Y-84231071D02*
X153608571Y-82731071D01*
X153751428Y-82945357D01*
X153894285Y-83088214D01*
X154037142Y-83159642D01*
X152894285Y-84373928D02*
X151751428Y-84373928D01*
X151180000Y-83373928D02*
X151322857Y-83302500D01*
X151394285Y-83231071D01*
X151465714Y-83088214D01*
X151465714Y-83016785D01*
X151394285Y-82873928D01*
X151322857Y-82802500D01*
X151180000Y-82731071D01*
X150894285Y-82731071D01*
X150751428Y-82802500D01*
X150680000Y-82873928D01*
X150608571Y-83016785D01*
X150608571Y-83088214D01*
X150680000Y-83231071D01*
X150751428Y-83302500D01*
X150894285Y-83373928D01*
X151180000Y-83373928D01*
X151322857Y-83445357D01*
X151394285Y-83516785D01*
X151465714Y-83659642D01*
X151465714Y-83945357D01*
X151394285Y-84088214D01*
X151322857Y-84159642D01*
X151180000Y-84231071D01*
X150894285Y-84231071D01*
X150751428Y-84159642D01*
X150680000Y-84088214D01*
X150608571Y-83945357D01*
X150608571Y-83659642D01*
X150680000Y-83516785D01*
X150751428Y-83445357D01*
X150894285Y-83373928D01*
X149965714Y-84231071D02*
X149965714Y-82731071D01*
X149965714Y-83302500D02*
X149822857Y-83231071D01*
X149537142Y-83231071D01*
X149394285Y-83302500D01*
X149322857Y-83373928D01*
X149251428Y-83516785D01*
X149251428Y-83945357D01*
X149322857Y-84088214D01*
X149394285Y-84159642D01*
X149537142Y-84231071D01*
X149822857Y-84231071D01*
X149965714Y-84159642D01*
X148608571Y-84231071D02*
X148608571Y-83231071D01*
X148608571Y-82731071D02*
X148680000Y-82802500D01*
X148608571Y-82873928D01*
X148537142Y-82802500D01*
X148608571Y-82731071D01*
X148608571Y-82873928D01*
X148108571Y-83231071D02*
X147537142Y-83231071D01*
X147894285Y-82731071D02*
X147894285Y-84016785D01*
X147822857Y-84159642D01*
X147680000Y-84231071D01*
X147537142Y-84231071D01*
X166822857Y-86646071D02*
X166822857Y-85646071D01*
X166822857Y-85788928D02*
X166751428Y-85717500D01*
X166608571Y-85646071D01*
X166394285Y-85646071D01*
X166251428Y-85717500D01*
X166180000Y-85860357D01*
X166180000Y-86646071D01*
X166180000Y-85860357D02*
X166108571Y-85717500D01*
X165965714Y-85646071D01*
X165751428Y-85646071D01*
X165608571Y-85717500D01*
X165537142Y-85860357D01*
X165537142Y-86646071D01*
X164180000Y-86646071D02*
X164180000Y-85860357D01*
X164251428Y-85717500D01*
X164394285Y-85646071D01*
X164680000Y-85646071D01*
X164822857Y-85717500D01*
X164180000Y-86574642D02*
X164322857Y-86646071D01*
X164680000Y-86646071D01*
X164822857Y-86574642D01*
X164894285Y-86431785D01*
X164894285Y-86288928D01*
X164822857Y-86146071D01*
X164680000Y-86074642D01*
X164322857Y-86074642D01*
X164180000Y-86003214D01*
X163465714Y-86646071D02*
X163465714Y-85646071D01*
X163465714Y-85146071D02*
X163537142Y-85217500D01*
X163465714Y-85288928D01*
X163394285Y-85217500D01*
X163465714Y-85146071D01*
X163465714Y-85288928D01*
X162537142Y-86646071D02*
X162680000Y-86574642D01*
X162751428Y-86431785D01*
X162751428Y-85146071D01*
X161965714Y-86503214D02*
X161894285Y-86574642D01*
X161965714Y-86646071D01*
X162037142Y-86574642D01*
X161965714Y-86503214D01*
X161965714Y-86646071D01*
X161965714Y-85717500D02*
X161894285Y-85788928D01*
X161965714Y-85860357D01*
X162037142Y-85788928D01*
X161965714Y-85717500D01*
X161965714Y-85860357D01*
X161251428Y-86646071D02*
X161251428Y-85146071D01*
X161108571Y-86074642D02*
X160680000Y-86646071D01*
X160680000Y-85646071D02*
X161251428Y-86217500D01*
X159394285Y-86646071D02*
X159394285Y-85860357D01*
X159465714Y-85717500D01*
X159608571Y-85646071D01*
X159894285Y-85646071D01*
X160037142Y-85717500D01*
X159394285Y-86574642D02*
X159537142Y-86646071D01*
X159894285Y-86646071D01*
X160037142Y-86574642D01*
X160108571Y-86431785D01*
X160108571Y-86288928D01*
X160037142Y-86146071D01*
X159894285Y-86074642D01*
X159537142Y-86074642D01*
X159394285Y-86003214D01*
X158822857Y-85646071D02*
X158037142Y-85646071D01*
X158822857Y-86646071D01*
X158037142Y-86646071D01*
X156822857Y-85646071D02*
X156822857Y-86646071D01*
X157465714Y-85646071D02*
X157465714Y-86431785D01*
X157394285Y-86574642D01*
X157251428Y-86646071D01*
X157037142Y-86646071D01*
X156894285Y-86574642D01*
X156822857Y-86503214D01*
X156108571Y-86646071D02*
X156108571Y-85146071D01*
X155965714Y-86074642D02*
X155537142Y-86646071D01*
X155537142Y-85646071D02*
X156108571Y-86217500D01*
X154894285Y-86646071D02*
X154894285Y-85646071D01*
X154894285Y-85146071D02*
X154965714Y-85217500D01*
X154894285Y-85288928D01*
X154822857Y-85217500D01*
X154894285Y-85146071D01*
X154894285Y-85288928D01*
X154180000Y-86503214D02*
X154108571Y-86574642D01*
X154180000Y-86646071D01*
X154251428Y-86574642D01*
X154180000Y-86503214D01*
X154180000Y-86646071D01*
X153680000Y-85646071D02*
X153108571Y-85646071D01*
X153465714Y-86646071D02*
X153465714Y-85360357D01*
X153394285Y-85217500D01*
X153251428Y-85146071D01*
X153108571Y-85146071D01*
X151965714Y-85646071D02*
X151965714Y-86646071D01*
X152608571Y-85646071D02*
X152608571Y-86431785D01*
X152537142Y-86574642D01*
X152394285Y-86646071D01*
X152180000Y-86646071D01*
X152037142Y-86574642D01*
X151965714Y-86503214D01*
X151251428Y-85646071D02*
X151251428Y-86931785D01*
X151322857Y-87074642D01*
X151465714Y-87146071D01*
X151537142Y-87146071D01*
X151251428Y-85146071D02*
X151322857Y-85217500D01*
X151251428Y-85288928D01*
X151180000Y-85217500D01*
X151251428Y-85146071D01*
X151251428Y-85288928D01*
X150537142Y-86646071D02*
X150537142Y-85646071D01*
X150537142Y-85146071D02*
X150608571Y-85217500D01*
X150537142Y-85288928D01*
X150465714Y-85217500D01*
X150537142Y-85146071D01*
X150537142Y-85288928D01*
X150037142Y-85646071D02*
X149465714Y-85646071D01*
X149822857Y-85146071D02*
X149822857Y-86431785D01*
X149751428Y-86574642D01*
X149608571Y-86646071D01*
X149465714Y-86646071D01*
X148322857Y-86646071D02*
X148322857Y-85860357D01*
X148394285Y-85717500D01*
X148537142Y-85646071D01*
X148822857Y-85646071D01*
X148965714Y-85717500D01*
X148322857Y-86574642D02*
X148465714Y-86646071D01*
X148822857Y-86646071D01*
X148965714Y-86574642D01*
X149037142Y-86431785D01*
X149037142Y-86288928D01*
X148965714Y-86146071D01*
X148822857Y-86074642D01*
X148465714Y-86074642D01*
X148322857Y-86003214D01*
X147394285Y-85788928D02*
X147537142Y-85717500D01*
X147608571Y-85646071D01*
X147680000Y-85503214D01*
X147680000Y-85431785D01*
X147608571Y-85288928D01*
X147537142Y-85217500D01*
X147394285Y-85146071D01*
X147108571Y-85146071D01*
X146965714Y-85217500D01*
X146894285Y-85288928D01*
X146822857Y-85431785D01*
X146822857Y-85503214D01*
X146894285Y-85646071D01*
X146965714Y-85717500D01*
X147108571Y-85788928D01*
X147394285Y-85788928D01*
X147537142Y-85860357D01*
X147608571Y-85931785D01*
X147680000Y-86074642D01*
X147680000Y-86360357D01*
X147608571Y-86503214D01*
X147537142Y-86574642D01*
X147394285Y-86646071D01*
X147108571Y-86646071D01*
X146965714Y-86574642D01*
X146894285Y-86503214D01*
X146822857Y-86360357D01*
X146822857Y-86074642D01*
X146894285Y-85931785D01*
X146965714Y-85860357D01*
X147108571Y-85788928D01*
X145965714Y-85788928D02*
X146108571Y-85717500D01*
X146180000Y-85646071D01*
X146251428Y-85503214D01*
X146251428Y-85431785D01*
X146180000Y-85288928D01*
X146108571Y-85217500D01*
X145965714Y-85146071D01*
X145680000Y-85146071D01*
X145537142Y-85217500D01*
X145465714Y-85288928D01*
X145394285Y-85431785D01*
X145394285Y-85503214D01*
X145465714Y-85646071D01*
X145537142Y-85717500D01*
X145680000Y-85788928D01*
X145965714Y-85788928D01*
X146108571Y-85860357D01*
X146180000Y-85931785D01*
X146251428Y-86074642D01*
X146251428Y-86360357D01*
X146180000Y-86503214D01*
X146108571Y-86574642D01*
X145965714Y-86646071D01*
X145680000Y-86646071D01*
X145537142Y-86574642D01*
X145465714Y-86503214D01*
X145394285Y-86360357D01*
X145394285Y-86074642D01*
X145465714Y-85931785D01*
X145537142Y-85860357D01*
X145680000Y-85788928D01*
X144822857Y-85288928D02*
X144751428Y-85217500D01*
X144608571Y-85146071D01*
X144251428Y-85146071D01*
X144108571Y-85217500D01*
X144037142Y-85288928D01*
X143965714Y-85431785D01*
X143965714Y-85574642D01*
X144037142Y-85788928D01*
X144894285Y-86646071D01*
X143965714Y-86646071D01*
X143465714Y-85146071D02*
X142537142Y-85146071D01*
X143037142Y-85717500D01*
X142822857Y-85717500D01*
X142680000Y-85788928D01*
X142608571Y-85860357D01*
X142537142Y-86003214D01*
X142537142Y-86360357D01*
X142608571Y-86503214D01*
X142680000Y-86574642D01*
X142822857Y-86646071D01*
X143251428Y-86646071D01*
X143394285Y-86574642D01*
X143465714Y-86503214D01*
X140965714Y-85931785D02*
X141037142Y-85860357D01*
X141180000Y-85788928D01*
X141322857Y-85788928D01*
X141465714Y-85860357D01*
X141537142Y-85931785D01*
X141608571Y-86074642D01*
X141608571Y-86217500D01*
X141537142Y-86360357D01*
X141465714Y-86431785D01*
X141322857Y-86503214D01*
X141180000Y-86503214D01*
X141037142Y-86431785D01*
X140965714Y-86360357D01*
X140965714Y-85788928D02*
X140965714Y-86360357D01*
X140894285Y-86431785D01*
X140822857Y-86431785D01*
X140680000Y-86360357D01*
X140608571Y-86217500D01*
X140608571Y-85860357D01*
X140751428Y-85646071D01*
X140965714Y-85503214D01*
X141251428Y-85431785D01*
X141537142Y-85503214D01*
X141751428Y-85646071D01*
X141894285Y-85860357D01*
X141965714Y-86146071D01*
X141894285Y-86431785D01*
X141751428Y-86646071D01*
X141537142Y-86788928D01*
X141251428Y-86860357D01*
X140965714Y-86788928D01*
X140751428Y-86646071D01*
X139322857Y-85646071D02*
X139322857Y-86860357D01*
X139394285Y-87003214D01*
X139465714Y-87074642D01*
X139608571Y-87146071D01*
X139822857Y-87146071D01*
X139965714Y-87074642D01*
X139322857Y-86574642D02*
X139465714Y-86646071D01*
X139751428Y-86646071D01*
X139894285Y-86574642D01*
X139965714Y-86503214D01*
X140037142Y-86360357D01*
X140037142Y-85931785D01*
X139965714Y-85788928D01*
X139894285Y-85717500D01*
X139751428Y-85646071D01*
X139465714Y-85646071D01*
X139322857Y-85717500D01*
X138608571Y-86646071D02*
X138608571Y-85646071D01*
X138608571Y-85788928D02*
X138537142Y-85717500D01*
X138394285Y-85646071D01*
X138180000Y-85646071D01*
X138037142Y-85717500D01*
X137965714Y-85860357D01*
X137965714Y-86646071D01*
X137965714Y-85860357D02*
X137894285Y-85717500D01*
X137751428Y-85646071D01*
X137537142Y-85646071D01*
X137394285Y-85717500D01*
X137322857Y-85860357D01*
X137322857Y-86646071D01*
X135965714Y-86646071D02*
X135965714Y-85860357D01*
X136037142Y-85717500D01*
X136180000Y-85646071D01*
X136465714Y-85646071D01*
X136608571Y-85717500D01*
X135965714Y-86574642D02*
X136108571Y-86646071D01*
X136465714Y-86646071D01*
X136608571Y-86574642D01*
X136680000Y-86431785D01*
X136680000Y-86288928D01*
X136608571Y-86146071D01*
X136465714Y-86074642D01*
X136108571Y-86074642D01*
X135965714Y-86003214D01*
X135251428Y-86646071D02*
X135251428Y-85646071D01*
X135251428Y-85146071D02*
X135322857Y-85217500D01*
X135251428Y-85288928D01*
X135180000Y-85217500D01*
X135251428Y-85146071D01*
X135251428Y-85288928D01*
X134322857Y-86646071D02*
X134465714Y-86574642D01*
X134537142Y-86431785D01*
X134537142Y-85146071D01*
X133751428Y-86503214D02*
X133680000Y-86574642D01*
X133751428Y-86646071D01*
X133822857Y-86574642D01*
X133751428Y-86503214D01*
X133751428Y-86646071D01*
X132394285Y-86574642D02*
X132537142Y-86646071D01*
X132822857Y-86646071D01*
X132965714Y-86574642D01*
X133037142Y-86503214D01*
X133108571Y-86360357D01*
X133108571Y-85931785D01*
X133037142Y-85788928D01*
X132965714Y-85717500D01*
X132822857Y-85646071D01*
X132537142Y-85646071D01*
X132394285Y-85717500D01*
X131537142Y-86646071D02*
X131680000Y-86574642D01*
X131751428Y-86503214D01*
X131822857Y-86360357D01*
X131822857Y-85931785D01*
X131751428Y-85788928D01*
X131680000Y-85717500D01*
X131537142Y-85646071D01*
X131322857Y-85646071D01*
X131180000Y-85717500D01*
X131108571Y-85788928D01*
X131037142Y-85931785D01*
X131037142Y-86360357D01*
X131108571Y-86503214D01*
X131180000Y-86574642D01*
X131322857Y-86646071D01*
X131537142Y-86646071D01*
X130394285Y-86646071D02*
X130394285Y-85646071D01*
X130394285Y-85788928D02*
X130322857Y-85717500D01*
X130180000Y-85646071D01*
X129965714Y-85646071D01*
X129822857Y-85717500D01*
X129751428Y-85860357D01*
X129751428Y-86646071D01*
X129751428Y-85860357D02*
X129680000Y-85717500D01*
X129537142Y-85646071D01*
X129322857Y-85646071D01*
X129180000Y-85717500D01*
X129108571Y-85860357D01*
X129108571Y-86646071D01*
X166965714Y-87561071D02*
X165965714Y-87561071D01*
X166608571Y-89061071D01*
X165537142Y-87561071D02*
X164537142Y-87561071D01*
X165180000Y-89061071D01*
X163180000Y-89061071D02*
X164037142Y-89061071D01*
X163608571Y-89061071D02*
X163608571Y-87561071D01*
X163751428Y-87775357D01*
X163894285Y-87918214D01*
X164037142Y-87989642D01*
X162537142Y-88489642D02*
X161394285Y-88489642D01*
X160465714Y-88203928D02*
X160608571Y-88132500D01*
X160680000Y-88061071D01*
X160751428Y-87918214D01*
X160751428Y-87846785D01*
X160680000Y-87703928D01*
X160608571Y-87632500D01*
X160465714Y-87561071D01*
X160180000Y-87561071D01*
X160037142Y-87632500D01*
X159965714Y-87703928D01*
X159894285Y-87846785D01*
X159894285Y-87918214D01*
X159965714Y-88061071D01*
X160037142Y-88132500D01*
X160180000Y-88203928D01*
X160465714Y-88203928D01*
X160608571Y-88275357D01*
X160680000Y-88346785D01*
X160751428Y-88489642D01*
X160751428Y-88775357D01*
X160680000Y-88918214D01*
X160608571Y-88989642D01*
X160465714Y-89061071D01*
X160180000Y-89061071D01*
X160037142Y-88989642D01*
X159965714Y-88918214D01*
X159894285Y-88775357D01*
X159894285Y-88489642D01*
X159965714Y-88346785D01*
X160037142Y-88275357D01*
X160180000Y-88203928D01*
X159251428Y-89061071D02*
X159251428Y-87561071D01*
X159251428Y-88132500D02*
X159108571Y-88061071D01*
X158822857Y-88061071D01*
X158680000Y-88132500D01*
X158608571Y-88203928D01*
X158537142Y-88346785D01*
X158537142Y-88775357D01*
X158608571Y-88918214D01*
X158680000Y-88989642D01*
X158822857Y-89061071D01*
X159108571Y-89061071D01*
X159251428Y-88989642D01*
X157894285Y-89061071D02*
X157894285Y-88061071D01*
X157894285Y-87561071D02*
X157965714Y-87632500D01*
X157894285Y-87703928D01*
X157822857Y-87632500D01*
X157894285Y-87561071D01*
X157894285Y-87703928D01*
X157394285Y-88061071D02*
X156822857Y-88061071D01*
X157180000Y-87561071D02*
X157180000Y-88846785D01*
X157108571Y-88989642D01*
X156965714Y-89061071D01*
X156822857Y-89061071D01*
X156322857Y-88918214D02*
X156251428Y-88989642D01*
X156322857Y-89061071D01*
X156394285Y-88989642D01*
X156322857Y-88918214D01*
X156322857Y-89061071D01*
X154965714Y-88989642D02*
X155108571Y-89061071D01*
X155394285Y-89061071D01*
X155537142Y-88989642D01*
X155608571Y-88918214D01*
X155680000Y-88775357D01*
X155680000Y-88346785D01*
X155608571Y-88203928D01*
X155537142Y-88132500D01*
X155394285Y-88061071D01*
X155108571Y-88061071D01*
X154965714Y-88132500D01*
X154108571Y-89061071D02*
X154251428Y-88989642D01*
X154322857Y-88918214D01*
X154394285Y-88775357D01*
X154394285Y-88346785D01*
X154322857Y-88203928D01*
X154251428Y-88132500D01*
X154108571Y-88061071D01*
X153894285Y-88061071D01*
X153751428Y-88132500D01*
X153680000Y-88203928D01*
X153608571Y-88346785D01*
X153608571Y-88775357D01*
X153680000Y-88918214D01*
X153751428Y-88989642D01*
X153894285Y-89061071D01*
X154108571Y-89061071D01*
X152965714Y-89061071D02*
X152965714Y-88061071D01*
X152965714Y-88203928D02*
X152894285Y-88132500D01*
X152751428Y-88061071D01*
X152537142Y-88061071D01*
X152394285Y-88132500D01*
X152322857Y-88275357D01*
X152322857Y-89061071D01*
X152322857Y-88275357D02*
X152251428Y-88132500D01*
X152108571Y-88061071D01*
X151894285Y-88061071D01*
X151751428Y-88132500D01*
X151680000Y-88275357D01*
X151680000Y-89061071D01*
X149894285Y-87489642D02*
X151180000Y-89418214D01*
X149394285Y-89061071D02*
X149394285Y-87561071D01*
X149394285Y-88132500D02*
X149251428Y-88061071D01*
X148965714Y-88061071D01*
X148822857Y-88132500D01*
X148751428Y-88203928D01*
X148680000Y-88346785D01*
X148680000Y-88775357D01*
X148751428Y-88918214D01*
X148822857Y-88989642D01*
X148965714Y-89061071D01*
X149251428Y-89061071D01*
X149394285Y-88989642D01*
X148037142Y-89061071D02*
X148037142Y-88061071D01*
X148037142Y-87561071D02*
X148108571Y-87632500D01*
X148037142Y-87703928D01*
X147965714Y-87632500D01*
X148037142Y-87561071D01*
X148037142Y-87703928D01*
X147322857Y-89061071D02*
X147322857Y-88061071D01*
X147322857Y-88346785D02*
X147251428Y-88203928D01*
X147180000Y-88132500D01*
X147037142Y-88061071D01*
X146894285Y-88061071D01*
X145751428Y-89061071D02*
X145751428Y-87561071D01*
X145751428Y-88989642D02*
X145894285Y-89061071D01*
X146180000Y-89061071D01*
X146322857Y-88989642D01*
X146394285Y-88918214D01*
X146465714Y-88775357D01*
X146465714Y-88346785D01*
X146394285Y-88203928D01*
X146322857Y-88132500D01*
X146180000Y-88061071D01*
X145894285Y-88061071D01*
X145751428Y-88132500D01*
X145037142Y-89061071D02*
X145037142Y-88061071D01*
X145037142Y-88203928D02*
X144965714Y-88132500D01*
X144822857Y-88061071D01*
X144608571Y-88061071D01*
X144465714Y-88132500D01*
X144394285Y-88275357D01*
X144394285Y-89061071D01*
X144394285Y-88275357D02*
X144322857Y-88132500D01*
X144180000Y-88061071D01*
X143965714Y-88061071D01*
X143822857Y-88132500D01*
X143751428Y-88275357D01*
X143751428Y-89061071D01*
X142394285Y-89061071D02*
X142394285Y-88275357D01*
X142465714Y-88132500D01*
X142608571Y-88061071D01*
X142894285Y-88061071D01*
X143037142Y-88132500D01*
X142394285Y-88989642D02*
X142537142Y-89061071D01*
X142894285Y-89061071D01*
X143037142Y-88989642D01*
X143108571Y-88846785D01*
X143108571Y-88703928D01*
X143037142Y-88561071D01*
X142894285Y-88489642D01*
X142537142Y-88489642D01*
X142394285Y-88418214D01*
X141680000Y-88061071D02*
X141680000Y-89061071D01*
X141680000Y-88203928D02*
X141608571Y-88132500D01*
X141465714Y-88061071D01*
X141251428Y-88061071D01*
X141108571Y-88132500D01*
X141037142Y-88275357D01*
X141037142Y-89061071D01*
X140322857Y-88489642D02*
X139180000Y-88489642D01*
X137822857Y-88061071D02*
X137822857Y-89275357D01*
X137894285Y-89418214D01*
X137965714Y-89489642D01*
X138108571Y-89561071D01*
X138322857Y-89561071D01*
X138465714Y-89489642D01*
X137822857Y-88989642D02*
X137965714Y-89061071D01*
X138251428Y-89061071D01*
X138394285Y-88989642D01*
X138465714Y-88918214D01*
X138537142Y-88775357D01*
X138537142Y-88346785D01*
X138465714Y-88203928D01*
X138394285Y-88132500D01*
X138251428Y-88061071D01*
X137965714Y-88061071D01*
X137822857Y-88132500D01*
X136894285Y-89061071D02*
X137037142Y-88989642D01*
X137108571Y-88846785D01*
X137108571Y-87561071D01*
X136322857Y-89061071D02*
X136322857Y-88061071D01*
X136322857Y-87561071D02*
X136394285Y-87632500D01*
X136322857Y-87703928D01*
X136251428Y-87632500D01*
X136322857Y-87561071D01*
X136322857Y-87703928D01*
X134965714Y-89061071D02*
X134965714Y-87561071D01*
X134965714Y-88989642D02*
X135108571Y-89061071D01*
X135394285Y-89061071D01*
X135537142Y-88989642D01*
X135608571Y-88918214D01*
X135680000Y-88775357D01*
X135680000Y-88346785D01*
X135608571Y-88203928D01*
X135537142Y-88132500D01*
X135394285Y-88061071D01*
X135108571Y-88061071D01*
X134965714Y-88132500D01*
X133680000Y-88989642D02*
X133822857Y-89061071D01*
X134108571Y-89061071D01*
X134251428Y-88989642D01*
X134322857Y-88846785D01*
X134322857Y-88275357D01*
X134251428Y-88132500D01*
X134108571Y-88061071D01*
X133822857Y-88061071D01*
X133680000Y-88132500D01*
X133608571Y-88275357D01*
X133608571Y-88418214D01*
X134322857Y-88561071D01*
X132965714Y-89061071D02*
X132965714Y-88061071D01*
X132965714Y-88346785D02*
X132894285Y-88203928D01*
X132822857Y-88132500D01*
X132680000Y-88061071D01*
X132537142Y-88061071D01*
X132037142Y-88489642D02*
X130894285Y-88489642D01*
X129537142Y-89061071D02*
X129537142Y-88275357D01*
X129608571Y-88132500D01*
X129751428Y-88061071D01*
X130037142Y-88061071D01*
X130180000Y-88132500D01*
X129537142Y-88989642D02*
X129680000Y-89061071D01*
X130037142Y-89061071D01*
X130180000Y-88989642D01*
X130251428Y-88846785D01*
X130251428Y-88703928D01*
X130180000Y-88561071D01*
X130037142Y-88489642D01*
X129680000Y-88489642D01*
X129537142Y-88418214D01*
X128965714Y-88061071D02*
X128608571Y-89061071D01*
X128251428Y-88061071D01*
X127680000Y-89061071D02*
X127680000Y-88061071D01*
X127680000Y-87561071D02*
X127751428Y-87632500D01*
X127680000Y-87703928D01*
X127608571Y-87632500D01*
X127680000Y-87561071D01*
X127680000Y-87703928D01*
X126751428Y-89061071D02*
X126894285Y-88989642D01*
X126965714Y-88918214D01*
X127037142Y-88775357D01*
X127037142Y-88346785D01*
X126965714Y-88203928D01*
X126894285Y-88132500D01*
X126751428Y-88061071D01*
X126537142Y-88061071D01*
X126394285Y-88132500D01*
X126322857Y-88203928D01*
X126251428Y-88346785D01*
X126251428Y-88775357D01*
X126322857Y-88918214D01*
X126394285Y-88989642D01*
X126537142Y-89061071D01*
X126751428Y-89061071D01*
X125608571Y-88061071D02*
X125608571Y-89061071D01*
X125608571Y-88203928D02*
X125537142Y-88132500D01*
X125394285Y-88061071D01*
X125180000Y-88061071D01*
X125037142Y-88132500D01*
X124965714Y-88275357D01*
X124965714Y-89061071D01*
X124251428Y-89061071D02*
X124251428Y-88061071D01*
X124251428Y-87561071D02*
X124322857Y-87632500D01*
X124251428Y-87703928D01*
X124180000Y-87632500D01*
X124251428Y-87561071D01*
X124251428Y-87703928D01*
X122894285Y-88989642D02*
X123037142Y-89061071D01*
X123322857Y-89061071D01*
X123465714Y-88989642D01*
X123537142Y-88918214D01*
X123608571Y-88775357D01*
X123608571Y-88346785D01*
X123537142Y-88203928D01*
X123465714Y-88132500D01*
X123322857Y-88061071D01*
X123037142Y-88061071D01*
X122894285Y-88132500D01*
X122322857Y-88989642D02*
X122180000Y-89061071D01*
X121894285Y-89061071D01*
X121751428Y-88989642D01*
X121680000Y-88846785D01*
X121680000Y-88775357D01*
X121751428Y-88632500D01*
X121894285Y-88561071D01*
X122108571Y-88561071D01*
X122251428Y-88489642D01*
X122322857Y-88346785D01*
X122322857Y-88275357D01*
X122251428Y-88132500D01*
X122108571Y-88061071D01*
X121894285Y-88061071D01*
X121751428Y-88132500D01*
X119965714Y-87489642D02*
X121251428Y-89418214D01*
D11*
%TO.C,J1*%
X147050000Y-96130000D02*
X147050000Y-98790000D01*
X126610000Y-96130000D02*
X126610000Y-97460000D01*
X129210000Y-96130000D02*
X129210000Y-98790000D01*
X129210000Y-98790000D02*
X147050000Y-98790000D01*
X129210000Y-96130000D02*
X147050000Y-96130000D01*
X127940000Y-96130000D02*
X126610000Y-96130000D01*
%TO.C,J3*%
X150800000Y-96130000D02*
X149470000Y-96130000D01*
X152070000Y-96130000D02*
X152070000Y-98790000D01*
X149470000Y-96130000D02*
X149470000Y-97460000D01*
X152070000Y-98790000D02*
X169910000Y-98790000D01*
X169910000Y-96130000D02*
X169910000Y-98790000D01*
X152070000Y-96130000D02*
X169910000Y-96130000D01*
%TO.C,J5*%
X172330000Y-96130000D02*
X172330000Y-97460000D01*
X174930000Y-96130000D02*
X192770000Y-96130000D01*
X174930000Y-98790000D02*
X192770000Y-98790000D01*
X192770000Y-96130000D02*
X192770000Y-98790000D01*
X173660000Y-96130000D02*
X172330000Y-96130000D01*
X174930000Y-96130000D02*
X174930000Y-98790000D01*
%TO.C,J2*%
X120066000Y-47870000D02*
X120066000Y-50530000D01*
X120066000Y-47870000D02*
X142986000Y-47870000D01*
X120066000Y-50530000D02*
X142986000Y-50530000D01*
X117466000Y-47870000D02*
X117466000Y-49200000D01*
X142986000Y-47870000D02*
X142986000Y-50530000D01*
X118796000Y-47870000D02*
X117466000Y-47870000D01*
%TO.C,J4*%
X145720000Y-47870000D02*
X144390000Y-47870000D01*
X144390000Y-47870000D02*
X144390000Y-49200000D01*
X146990000Y-47870000D02*
X146990000Y-50530000D01*
X164830000Y-47870000D02*
X164830000Y-50530000D01*
X146990000Y-50530000D02*
X164830000Y-50530000D01*
X146990000Y-47870000D02*
X164830000Y-47870000D01*
%TO.C,J6*%
X168580000Y-47870000D02*
X167250000Y-47870000D01*
X169850000Y-47870000D02*
X187690000Y-47870000D01*
X187690000Y-47870000D02*
X187690000Y-50530000D01*
X169850000Y-47870000D02*
X169850000Y-50530000D01*
X169850000Y-50530000D02*
X187690000Y-50530000D01*
X167250000Y-47870000D02*
X167250000Y-49200000D01*
%TO.C,J7*%
X162170000Y-68190000D02*
X162170000Y-69520000D01*
X164830000Y-70790000D02*
X164830000Y-75930000D01*
X162170000Y-70790000D02*
X162170000Y-75930000D01*
X163500000Y-68190000D02*
X162170000Y-68190000D01*
X164830000Y-75930000D02*
X162170000Y-75930000D01*
X164830000Y-70790000D02*
X162170000Y-70790000D01*
%TO.C,J8*%
X164710000Y-73330000D02*
X167370000Y-73330000D01*
X164710000Y-68190000D02*
X167370000Y-68190000D01*
X166040000Y-75930000D02*
X167370000Y-75930000D01*
X167370000Y-73330000D02*
X167370000Y-68190000D01*
X164710000Y-73330000D02*
X164710000Y-68190000D01*
X167370000Y-75930000D02*
X167370000Y-74600000D01*
%TD*%
M02*
