M48
; DRILL file {KiCad (6.0.7)} date Wed Mar  1 01:05:32 2023
; FORMAT={-:-/ absolute / inch / decimal}
; #@! TF.CreationDate,2023-03-01T01:05:32+09:00
; #@! TF.GenerationSoftware,Kicad,Pcbnew,(6.0.7)
; #@! TF.FileFunction,Plated,1,2,PTH
FMAT,2
INCH
; #@! TA.AperFunction,Plated,PTH,ComponentDrill
T1C0.0276
; #@! TA.AperFunction,Plated,PTH,ComponentDrill
T2C0.0315
; #@! TA.AperFunction,Plated,PTH,ComponentDrill
T3C0.0354
; #@! TA.AperFunction,Plated,PTH,ComponentDrill
T4C0.0374
; #@! TA.AperFunction,Plated,PTH,ComponentDrill
T5C0.0394
%
G90
G05
T1
X4.987Y-2.087
X4.987Y-2.387
X5.137Y-2.087
X5.137Y-2.387
T2
X5.3374Y-2.0866
X5.3374Y-2.3866
X5.4374Y-2.0866
X5.4374Y-2.3866
X5.5374Y-2.0866
X5.5374Y-2.3866
X5.6374Y-2.0866
X5.6374Y-2.3866
X5.7374Y-2.0866
X5.7374Y-2.3866
X5.8374Y-2.0866
X5.8374Y-2.3866
X5.9374Y-2.0866
X5.9374Y-2.3866
X6.0374Y-2.0866
X6.0374Y-2.3866
X6.1374Y-2.0866
X6.1374Y-2.3866
X6.2374Y-2.0866
X6.2374Y-2.3866
X6.3374Y-2.0866
X6.3374Y-2.3866
X6.4374Y-2.0866
X6.4374Y-2.3866
X6.5374Y-2.0866
X6.5374Y-2.3866
X6.6374Y-2.0866
X6.6374Y-2.3866
X6.687Y-3.212
X6.787Y-3.212
X6.787Y-3.712
X6.887Y-3.212
X6.987Y-3.212
X7.087Y-3.212
X7.187Y-3.212
X7.287Y-3.212
X7.387Y-3.212
X7.487Y-3.212
X7.487Y-3.712
X7.587Y-3.212
T3
X4.2368Y-1.932
X4.237Y-3.837
X4.3368Y-1.932
X4.337Y-3.837
X4.762Y-2.5622
X4.762Y-2.6622
X4.8122Y-3.837
X4.9122Y-3.837
X7.0868Y-2.262
X7.1868Y-2.262
X7.7372Y-3.537
X7.8372Y-3.537
T4
X4.337Y-2.137
X4.337Y-2.2354
X4.337Y-2.3339
X4.337Y-2.4323
X4.337Y-2.5307
X4.337Y-2.787
X4.337Y-2.8854
X4.337Y-2.9839
X4.337Y-3.0823
X4.337Y-3.337
X4.337Y-3.4354
X4.337Y-3.5339
X4.337Y-3.6323
X7.4512Y-2.1386
X7.4512Y-2.237
X7.4512Y-2.3354
X7.4512Y-2.5902
X7.4512Y-2.6886
X7.4512Y-2.787
X7.4512Y-2.8854
X7.4512Y-2.9839
T5
X4.587Y-2.187
X4.587Y-2.287
X4.587Y-2.387
X4.587Y-2.837
X4.587Y-2.937
X4.587Y-3.037
X4.587Y-3.387
X4.587Y-3.487
X4.587Y-3.587
X4.677Y-1.937
X4.777Y-1.937
X4.877Y-1.937
X4.9386Y-3.1417
X4.977Y-1.937
X5.037Y-3.837
X5.0386Y-3.1417
X5.077Y-1.937
X5.137Y-2.537
X5.137Y-2.837
X5.137Y-3.837
X5.1386Y-3.0417
X5.1386Y-3.1417
X5.1386Y-3.2417
X5.177Y-1.937
X5.237Y-2.537
X5.237Y-2.837
X5.237Y-3.837
X5.2386Y-3.0417
X5.2386Y-3.1417
X5.2386Y-3.2417
X5.277Y-1.937
X5.337Y-2.537
X5.337Y-2.837
X5.337Y-3.837
X5.3386Y-3.0417
X5.3386Y-3.6417
X5.377Y-1.937
X5.437Y-2.537
X5.437Y-2.837
X5.437Y-3.837
X5.4386Y-3.0417
X5.4386Y-3.6417
X5.477Y-1.937
X5.537Y-3.837
X5.5386Y-3.0417
X5.5386Y-3.6417
X5.577Y-1.937
X5.637Y-3.837
X5.6386Y-3.0417
X5.6386Y-3.6417
X5.737Y-1.937
X5.737Y-3.837
X5.837Y-1.937
X5.887Y-2.587
X5.937Y-1.937
X5.937Y-3.837
X5.987Y-2.587
X6.037Y-1.937
X6.037Y-3.837
X6.087Y-2.587
X6.137Y-1.937
X6.137Y-3.837
X6.187Y-2.587
X6.237Y-1.937
X6.237Y-3.837
X6.287Y-2.587
X6.337Y-1.937
X6.337Y-3.837
X6.387Y-2.587
X6.437Y-1.937
X6.437Y-2.737
X6.437Y-2.837
X6.437Y-2.937
X6.437Y-3.837
X6.537Y-2.737
X6.537Y-2.837
X6.537Y-2.937
X6.537Y-3.837
X6.637Y-1.937
X6.637Y-3.837
X6.737Y-1.937
X6.837Y-1.937
X6.837Y-2.137
X6.837Y-2.2354
X6.837Y-2.3339
X6.837Y-3.837
X6.937Y-1.937
X6.937Y-3.837
X7.037Y-1.937
X7.037Y-3.837
X7.137Y-1.937
X7.137Y-3.837
X7.237Y-1.937
X7.237Y-3.837
X7.337Y-1.937
X7.337Y-3.837
X7.437Y-3.837
X7.537Y-3.837
T0
M30
